<?xml version="1.0" encoding="utf-8"?>
<!-- Generator: Adobe Illustrator 22.0.1, SVG Export Plug-In . SVG Version: 6.00 Build 0)  -->
<svg version="1.1" id="Livello_1" xmlns="http://www.w3.org/2000/svg" xmlns:xlink="http://www.w3.org/1999/xlink" x="0px" y="0px"
	 width="297px" height="60px" viewBox="0 0 297 60" style="enable-background:new 0 0 297 60;" xml:space="preserve">
<style type="text/css">
	.st0{fill:url(#SVGID_1_);}
	.st1{fill:url(#SVGID_2_);}
	.st2{fill:#2C4390;}
	.st3{fill:url(#SVGID_3_);}
	.st4{fill:url(#SVGID_4_);}
	.st5{fill:url(#SVGID_5_);}
	.st6{fill:url(#SVGID_6_);}
	.st7{fill:url(#SVGID_7_);}
	.st8{fill:url(#SVGID_8_);}
	.st9{fill:url(#SVGID_9_);}
	.st10{fill:url(#SVGID_10_);}
	.st11{fill:url(#SVGID_11_);}
	.st12{fill:url(#SVGID_12_);}
	.st13{fill:url(#SVGID_13_);}
	.st14{fill:url(#SVGID_14_);}
</style>
<linearGradient id="SVGID_1_" gradientUnits="userSpaceOnUse" x1="145.6396484" y1="52.0435181" x2="145.6396484" y2="7.7966642">
	<stop  offset="0" style="stop-color:#e74311"/>
	<stop  offset="0.0810405" style="stop-color:#e74311"/>
	<stop  offset="0.99945" style="stop-color:#fbb900"/>
	<stop  offset="1" style="stop-color:#fbb900"/>
</linearGradient>
<path class="st0" d="M209.4801941,28.9887848c1.366745-0.6620331,2.6192627-1.7804546,3.7593231-3.3552647
	c1.1382751-1.5736008,1.7082977-3.4794216,1.7082977-5.7162647c0-3.8522339-1.0666962-6.8346872-3.1995392-8.9470453
	c-2.1340027-2.1126738-5.3124847-3.1688662-9.5378113-3.1688662h-18.7016449v32.8685989
	c0,0.4184532,0.0001526,0.8414001,0.000412,1.2638321l-11.3151398-8.4683723
	c0.0637817-0.0903091,1.9801178-1.5920582,3.5338898-3.7666588c1.5531616-2.1746006,2.3300323-4.7532864,2.3300323-7.7357388
	c0-4.1008625-1.2951965-7.4870853-3.8838043-10.1586676c-2.5892181-2.6718845-6.0791321-4.0076752-10.4692383-4.0076752h-7.331665
	c-3.6035919,0-6.172348,0.7564421-7.7044678,2.2678137c-1.5333099,1.5125675-2.2987671,3.9252815-2.2987671,7.2387581v27.0281658
	h-21.0232697c-2.0720825,0-3.5007706-0.3313255-4.2872772-0.9939499c-0.7877045-0.6626396-1.1803513-1.8640327-1.1803513-3.6041946
	v-6.15131h13.6792984v-5.9317932c0-0.9790154-0.7936554-1.7726727-1.7726746-1.7726727h-11.9066238V15.5011311h20.503746V9.5693502
	c0-0.9790306-0.7936554-1.772686-1.7726746-1.772686H113.336731h-2.0940475H85.2157135
	c-3.4791336,0-5.9336319,0.6833801-7.3629303,2.0504446c-1.428688,1.3670502-2.1430359,3.6871681-2.1430359,6.9588432v35.2299042
	h6.8638c0.9790344,0,1.7726898-0.793644,1.7726898-1.7726707V34.0789185h15.5953293l-0.0050735-5.9333076
	c-0.000824-0.9784241-0.7942352-1.7711601-1.7726746-1.7711601H84.3462372v-6.1510048
	c0-1.7398605,0.3619766-2.9611053,1.0871506-3.6658325c0.7239532-0.7041121,1.9981079-1.0564823,3.8212585-1.0564823h21.9880371
	v24.8538685c0,4.3492012,1.0035782,7.3839722,3.0131226,9.1024857c2.0089493,1.71912,5.4988937,2.5783691,10.4692535,2.5783691
	h21.6450119h3.2375793h5.3989105V36.1100121l6.4261932-0.0000534l22.0433807,15.9258957l13.5413666,0.0076637l-0.001236-0.0009193
	l5.9398041-0.0020523c3.9763947,0,7.0724945-1.0967712,9.2888794-3.2933235
	c2.2158203-2.1947517,3.324585-5.3431625,3.324585-9.4440269C215.5695343,34.3322372,213.5389709,30.8946056,209.4801941,28.9887848
	z M167.6507111,26.529892c-1.1809692,1.2639275-2.6829987,1.8950024-4.5049438,1.8950024h-8.1392059v-9.0092869
	c0-2.6096554,1.2831726-3.9144764,3.8519287-3.9144764h4.2872772c1.9049072,0,3.4268036,0.5805588,4.566864,1.7398624
	c1.1388702,1.1602097,1.708313,2.6823997,1.708313,4.5668869C169.4209442,23.6929569,168.8310547,25.266861,167.6507111,26.529892z
	 M192.1452789,15.5058107h9.3821106c3.1886597,0,4.7839203,1.595252,4.7839203,4.784255
	c0,3.1902008-1.5952606,4.7842426-4.7839203,4.7842426h-9.3821106V15.5058107z M202.0865936,44.3360825h-4.4736938
	c-1.9475861,0-3.3456116-0.3313255-4.1940613-0.9939499c-0.8496552-0.6626396-1.2735596-1.8429871-1.2735596-3.5416641v-6.9594498
	h9.9413147c1.8219299,0,3.0852814,0.5077858,3.789978,1.5221901c0.7035217,1.0155869,1.0558929,2.5164413,1.0558929,4.5052376
	C206.9324646,42.5135345,205.3173676,44.3360825,202.0865936,44.3360825z"/>
<linearGradient id="SVGID_2_" gradientUnits="userSpaceOnUse" x1="30.0129814" y1="48.2221298" x2="30.0129814" y2="13.3773623">
	<stop  offset="0" style="stop-color:#e74311"/>
	<stop  offset="0.0810405" style="stop-color:#e74311"/>
	<stop  offset="0.99945" style="stop-color:#fbb900"/>
	<stop  offset="1" style="stop-color:#fbb900"/>
</linearGradient>
<path class="st1" d="M47.3375969,23.0792027c0-1.77108-1.4357681-3.2068462-3.20681-3.2068462
	c-1.0641518,0-1.999752,0.5240993-2.5832787,1.321907l-8.650322-4.0035858
	c0.0534363-0.2281361,0.0885506-0.463068,0.0885506-0.7074642c0-1.7153149-1.3905735-3.1058512-3.1057358-3.1058512
	c-1.7154694,0-3.1060429,1.3905363-3.1060429,3.1058512c0,0.2521458,0.0381699,0.4937935,0.094965,0.7285328l-8.4051247,3.9644642
	c-0.584444-0.7870846-1.5130196-1.303854-2.5686226-1.303854c-1.7710428,0-3.206809,1.4357662-3.206809,3.2068462
	c0,1.6753159,1.289197,3.0347805,2.9271059,3.1786404l1.0076618,9.1573219
	c-1.1465969,0.389782-1.9768496,1.4633598-1.9768496,2.7417183c0,1.6059608,1.3017168,2.9078674,2.9078684,2.9078674
	c0.838192,0,1.5875263-0.3597031,2.1182289-0.9270477l7.5794525,4.4865417
	c-0.0833626,0.263401-0.1404629,0.5383339-0.1404629,0.8292198c0,1.5290909,1.2394257,2.7686653,2.7686291,2.7686653
	c1.5288982,0,2.7686272-1.2395744,2.7686272-2.7686653c0-0.2947807-0.0586281-0.5733757-0.1438217-0.8398323l7.4811287-4.4675713
	c0.5300941,0.5627289,1.2769852,0.9186897,2.1115112,0.9186897c1.6058464,0,2.9078712-1.3019066,2.9078712-2.9078674
	c0-1.2536621-0.7978859-2.3124313-1.9096756-2.7208786l1.2366791-9.1702614
	C46.0077858,26.1597481,47.3375969,24.7812748,47.3375969,23.0792027z M39.9734192,36.1827812l-6.541256-3.8441162
	c0.2265701-0.4948997,0.3563461-1.0434265,0.3563461-1.6233292c0-0.3979111-0.0604591-0.7815876-0.1709976-1.1433144
	l7.9373245-4.5988712c0.3826065,0.5191364,0.9160576,0.9121246,1.5377541,1.1261005l-1.2372856,9.1741142
	C41.1129913,35.3356209,40.4519043,35.6679955,39.9734192,36.1827812z M17.8665295,35.2805023l-1.0073566-9.1581974
	c0.5710087-0.181036,1.068428-0.512228,1.4513378-0.9544926l7.8234291,4.4361191
	c-0.1044292,0.3525276-0.162447,0.7249813-0.162447,1.1114044c0,0.5835667,0.1313019,1.1352615,0.3606205,1.6326027
	l-6.6426315,3.8486977C19.2250404,35.690937,18.5865498,35.3585205,17.8665295,35.2805023z M41.0213852,22.3291435
	c-0.0583229,0.2416859-0.0974083,0.4905109-0.0974083,0.7500591c0,0.2619934,0.0400047,0.5129929,0.0995483,0.7567387
	l-7.9629745,4.6135292c-0.593605-0.8317032-1.5035553-1.4185524-2.5554943-1.5880604v-7.3353615
	c0.7627697-0.15592,1.4162235-0.5979557,1.8638706-1.2014847L41.0213852,22.3291435z M27.4051208,18.3419304
	c0.4473419,0.5940628,1.0940781,1.029686,1.8492126,1.1840801v7.3354759
	c-1.0629311,0.1713791-1.9817352,0.768343-2.5747299,1.613863l-7.7525864-4.3959656
	c0.1047363-0.3164978,0.1749668-0.6486435,0.1749668-1.0001812c0-0.2676029-0.0421391-0.5234489-0.1041241-0.7719307
	L27.4051208,18.3419304z M20.3050728,39.0582466c0.0934372-0.2854309,0.15695-0.5846367,0.15695-0.9013634
	c0-0.3074875-0.0607643-0.5980682-0.1493168-0.8762474l6.7198849-3.8933907
	c0.5777264,0.6152458,1.3508797,1.0415154,2.2217426,1.181942v8.1928291
	c-0.5334492,0.123703-1.0064411,0.3994751-1.3722515,0.7821198L20.3050728,39.0582466z M31.8708973,43.5360069
	c-0.3648968-0.3787918-0.8357487-0.6512794-1.3658409-0.7741051v-8.1926384
	c0.8745289-0.1409225,1.6507359-0.5703239,2.2290707-1.1897659l6.6096535,3.884346
	c-0.0919113,0.2830238-0.1545067,0.5793686-0.1545067,0.8930397c0,0.3207359,0.0644302,0.6237602,0.160614,0.9123154
	L31.8708973,43.5360069z"/>
<g>
	<path class="st2" d="M230.5672302,9.5468321c0-0.6059418,0.1676331-1.0413122,0.5024719-1.3061094
		s0.7352905-0.3973007,1.200943-0.3973007h0.2488098c1.2312317,0.0191393,2.1819,0.0670929,2.8515778,0.143651v1.3875046h-2.6315765
		c-0.1659393,0-0.293396,0.0447989-0.3825836,0.133976c-0.0895844,0.0893869-0.1339722,0.2042236-0.1339722,0.3445101v0.9952507
		l2.6793213,0.0860224v1.3111572l-2.6793213,0.0860214v2.6124296h-1.6556702V9.5468321z"/>
	<path class="st2" d="M238.0648499,14.7142715c-0.4242249-0.1913948-0.744751-0.5468416-0.9615936-1.0669718
		c-0.2170563-0.5199194-0.3253784-1.2709846-0.3253784-2.2536163c0-0.9822111,0.1083221-1.7351694,0.3253784-2.2582445
		c0.2168427-0.5230742,0.5373688-0.880414,0.9615936-1.0718088c0.4242249-0.1913939,0.9904175-0.2870913,1.6985779-0.2870913
		s1.274353,0.0956974,1.6985626,0.2870913c0.4242249,0.1913948,0.7447662,0.5487347,0.9618225,1.0718088
		c0.2168427,0.5230751,0.3253632,1.2760334,0.3253632,2.2582445c0,0.9826317-0.1085205,1.7336969-0.3253632,2.2536163
		c-0.2170563,0.5201302-0.5375977,0.875577-0.9618225,1.0669718c-0.4242096,0.1913939-0.9904022,0.2870913-1.6985626,0.2870913
		S238.4890747,14.9056654,238.0648499,14.7142715z M240.5864258,13.3507433
		c0.1850739-0.111681,0.3159027-0.317378,0.3924561-0.6172991c0.0765533-0.2997112,0.1148376-0.746438,0.1148376-1.3397608
		c0-0.612462-0.0382843-1.0684443-0.1148376-1.3683653c-0.0765533-0.2997112-0.2059021-0.5024633-0.387619-0.607625
		c-0.1819305-0.1053715-0.4578857-0.1579523-0.8278351-0.1579523c-0.3636475,0-0.6362305,0.0525808-0.818161,0.1579523
		c-0.1817169,0.1051617-0.3125458,0.3079138-0.3922577,0.607625c-0.0799255,0.299921-0.1196747,0.7559032-0.1196747,1.3683653
		c0,0.5933228,0.0382843,1.0400496,0.1148376,1.3397608c0.0765533,0.299921,0.2071686,0.5056181,0.3922577,0.6172991
		c0.1850891,0.1116819,0.4593506,0.1674175,0.822998,0.1674175S240.4013367,13.4624252,240.5864258,13.3507433z"/>
	<path class="st2" d="M244.4906616,7.8434219h1.3109436l2.717804,4.2966995V7.8434219h1.6554565v7.100523h-1.3206329
		l-2.7175903-4.2870255v4.2870255h-1.6459808V7.8434219z"/>
	<path class="st2" d="M252.0406342,7.8434219h3.0717773c0.9315338,0,1.5852203,0.3110685,1.9616852,0.9332056
		c0.3764954,0.6219263,0.5647278,1.4975033,0.5647278,2.6267309c0,1.2120943-0.2073975,2.1051283-0.6221313,2.6793108
		c-0.4147644,0.5741835-1.0493164,0.8612757-1.9042816,0.8612757h-3.0717773V7.8434219z M254.9498291,13.460743
		c0.3827972,0,0.6522217-0.1627903,0.8084869-0.4881611s0.2345123-0.8482351,0.2345123-1.5692234
		c0-0.567874-0.0399628-1.0015612-0.1196747-1.3014822c-0.0797119-0.2997112-0.1928711-0.5039358-0.3396759-0.612462
		c-0.1468048-0.1083174-0.3413544-0.1625805-0.5836487-0.1625805h-1.2535248v4.1339092H254.9498291z"/>
	<path class="st2" d="M260.9594116,7.8434219h2.0668335l2.1627808,7.100523h-1.7128906l-0.3636475-1.2918072h-2.2584534
		l-0.3539734,1.2918072h-1.7033997L260.9594116,7.8434219z M262.7297058,12.1689358l-0.7464294-2.9091949l-0.74646,2.9091949
		H262.7297058z"/>
	<path class="st2" d="M266.4137268,13.6233234l2.8326416-4.2964897h-2.8326416V7.8434219h4.8420715v1.3206215l-2.832428,4.2966995
		h2.832428v1.483202h-4.8420715V13.6233234z"/>
	<path class="st2" d="M272.9303894,7.8434219h1.6556702v7.100523h-1.6556702V7.8434219z"/>
	<path class="st2" d="M277.5856934,14.7142715c-0.4242249-0.1913948-0.744751-0.5468416-0.9616089-1.0669718
		c-0.217041-0.5199194-0.3253479-1.2709846-0.3253479-2.2536163c0-0.9822111,0.1083069-1.7351694,0.3253479-2.2582445
		c0.2168579-0.5230742,0.537384-0.880414,0.9616089-1.0718088c0.4242249-0.1913939,0.9904175-0.2870913,1.6985779-0.2870913
		s1.274353,0.0956974,1.6985779,0.2870913c0.4242249,0.1913948,0.744751,0.5487347,0.961792,1.0718088
		c0.2168579,0.5230751,0.3253784,1.2760334,0.3253784,2.2582445c0,0.9826317-0.1085205,1.7336969-0.3253784,2.2536163
		c-0.217041,0.5201302-0.5375671,0.875577-0.961792,1.0669718c-0.4242249,0.1913939-0.9904175,0.2870913-1.6985779,0.2870913
		S278.0099182,14.9056654,277.5856934,14.7142715z M280.1072693,13.3507433
		c0.1850891-0.111681,0.3158875-0.317378,0.3924561-0.6172991c0.0765686-0.2997112,0.1148376-0.746438,0.1148376-1.3397608
		c0-0.612462-0.038269-1.0684443-0.1148376-1.3683653c-0.0765686-0.2997112-0.2059021-0.5024633-0.3876343-0.607625
		c-0.1819153-0.1053715-0.4578552-0.1579523-0.8278198-0.1579523c-0.3636475,0-0.6362305,0.0525808-0.8181763,0.1579523
		c-0.1817017,0.1051617-0.3125305,0.3079138-0.3922424,0.607625c-0.0799255,0.299921-0.1196594,0.7559032-0.1196594,1.3683653
		c0,0.5933228,0.038269,1.0400496,0.1148376,1.3397608c0.0765381,0.299921,0.2071533,0.5056181,0.3922424,0.6172991
		c0.1850891,0.1116819,0.4593506,0.1674175,0.822998,0.1674175S279.9221802,13.4624252,280.1072693,13.3507433z"/>
	<path class="st2" d="M284.0115051,7.8434219h1.3109436l2.717804,4.2966995V7.8434219h1.6554565v7.100523h-1.3206177
		l-2.7175903-4.2870255v4.2870255h-1.6459961V7.8434219z"/>
	<path class="st2" d="M291.5614929,13.3650455V9.5468321c0-0.6059418,0.1676331-1.0413122,0.5024414-1.3061094
		c0.3348389-0.2647972,0.7352905-0.3973007,1.2009583-0.3973007c1.0589905,0.0065198,2.0922852,0.0513186,3.1003723,0.133976
		v1.3971796h-2.6027527c-0.1722412,0-0.3062134,0.0416441-0.4019165,0.1245108
		c-0.0957031,0.0828676-0.1434326,0.2073793-0.1434326,0.3731146v0.7847166l2.6792908,0.0956974v1.3014822l-2.6792908,0.0860224
		v0.746438c0,0.1913948,0.046051,0.3333626,0.1385803,0.4259052c0.0925598,0.0925426,0.2120056,0.1386032,0.3588257,0.1386032
		h2.6506958v1.3877144c-0.7653503,0.0956974-1.7639771,0.1497507-2.9949951,0.1625805
		C292.1644897,15.0013628,291.5614929,14.4559937,291.5614929,13.3650455z"/>
	<path class="st2" d="M230.5672302,22.6415749v-3.8182125c0-0.6059418,0.1676331-1.0413113,0.5024719-1.3061085
		c0.3348389-0.2647991,0.7352905-0.3973026,1.200943-0.3973026c1.0589752,0.0065212,2.0923004,0.0513191,3.1003876,0.133976
		v1.3971806h-2.6027679c-0.1722412,0-0.3062286,0.0416431-0.4019165,0.1245117
		c-0.0957031,0.0828667-0.1434479,0.2073784-0.1434479,0.3731136v0.7847176l2.6793213,0.0956955v1.3014832l-2.6793213,0.0860214
		v0.746439c0,0.1913948,0.0460663,0.3333626,0.1386108,0.4259052s0.2120056,0.1386032,0.3588104,0.1386032h2.6507111v1.3877144
		c-0.7653809,0.0956974-1.7639923,0.1497498-2.9950104,0.1625805
		C231.1702271,24.2778931,230.5672302,23.7325249,230.5672302,22.6415749z"/>
	<path class="st2" d="M237.7346344,23.7611275c-0.4976196-0.3379898-0.7464294-0.9569721-0.7464294-1.8565254v-4.7846508h1.6556702
		v4.7751865c0,0.5933228,0.3922424,0.8898792,1.1769714,0.8898792c0.7781982,0,1.1674957-0.2965565,1.1674957-0.8898792v-4.7751865
		h1.6554565v4.7846508c0,0.8995533-0.2473297,1.5185356-0.7415924,1.8565254
		c-0.4944763,0.3382015-1.188324,0.5070896-2.0813599,0.5070896
		C238.927597,24.2682171,238.2322693,24.099329,237.7346344,23.7611275z"/>
	<path class="st2" d="M244.4427032,17.1199512h2.9857483c0.6570587,0,1.1689758,0.1739388,1.5357819,0.5216026
		c0.366806,0.3478756,0.5502167,0.9521351,0.5502167,1.8134098c0,0.5741825-0.0908661,1.004715-0.272583,1.2918072
		c-0.1819305,0.2870922-0.4355774,0.5136108-0.7607422,0.6795559l1.2726593,2.7941475h-1.6842651l-1.0621338-2.5261955
		c-0.178772-0.0063095-0.4818573-0.009676-0.9090118-0.009676v2.5358715h-1.6556702V17.1199512z M247.1316833,20.3736572
		c0.2425079,0,0.4242249-0.0685654,0.545578-0.2056961c0.1211548-0.1371307,0.1817322-0.3716431,0.1817322-0.7035332
		c0-0.3251591-0.0605774-0.5502052-0.1817322-0.6745071c-0.1213531-0.1245117-0.3030701-0.1865578-0.545578-0.1865578h-1.0333099
		v1.7702942H247.1316833z"/>
	<path class="st2" d="M252.3803101,23.9908009c-0.4242249-0.1913948-0.744751-0.5468407-0.9615936-1.0669708
		c-0.2170563-0.5199203-0.3253784-1.2709846-0.3253784-2.2536163c0-0.9822121,0.1083221-1.7351704,0.3253784-2.2582436
		c0.2168427-0.5230751,0.5373688-0.880415,0.9615936-1.0718098s0.9904175-0.2870922,1.6985779-0.2870922
		s1.274353,0.0956974,1.6985626,0.2870922c0.4242401,0.1913948,0.7447662,0.5487347,0.9618073,1.0718098
		c0.2168579,0.5230732,0.3253784,1.2760315,0.3253784,2.2582436c0,0.9826317-0.1085205,1.733696-0.3253784,2.2536163
		c-0.217041,0.5201302-0.5375671,0.875576-0.9618073,1.0669708c-0.4242096,0.1913948-0.9904022,0.2870922-1.6985626,0.2870922
		S252.8045349,24.1821957,252.3803101,23.9908009z M254.901886,22.6272736c0.1850739-0.111681,0.3159027-0.3173771,0.3924561-0.6173
		c0.0765533-0.2997112,0.1148376-0.7464371,0.1148376-1.3397598c0-0.612463-0.0382843-1.0684433-0.1148376-1.3683662
		c-0.0765533-0.2997093-0.2059021-0.5024624-0.387619-0.6076241c-0.1819305-0.1053715-0.4578857-0.1579533-0.8278351-0.1579533
		c-0.3636475,0-0.6362305,0.0525818-0.818161,0.1579533c-0.1817169,0.1051617-0.3125458,0.3079147-0.3922577,0.6076241
		c-0.0799255,0.2999229-0.1196747,0.7559032-0.1196747,1.3683662c0,0.5933228,0.0382843,1.0400486,0.1148376,1.3397598
		c0.0765533,0.2999229,0.2071686,0.505619,0.3922577,0.6173c0.1850891,0.1116829,0.4593506,0.1674175,0.822998,0.1674175
		S254.7167969,22.7389565,254.901886,22.6272736z"/>
	<path class="st2" d="M258.7773132,17.1199512h3.0622864c0.6124878,0,1.1162109,0.1676292,1.5118103,0.5024643
		c0.3956299,0.3350449,0.5933228,1.0000877,0.5933228,1.9951286c0,1.00177-0.1945496,1.6779613-0.5836487,2.02878
		c-0.3893127,0.3510303-0.8707275,0.5262299-1.4449158,0.5262299c-0.2744751,0-0.5806885-0.0269203-0.9187012-0.0811844
		c-0.3381958-0.0542641-0.5262146-0.0845509-0.5644836-0.0910702v2.2201748h-1.6556702V17.1199512z M261.6576843,20.689352
		c0.2168274,0,0.3764648-0.0843391,0.4784851-0.2534389s0.1531067-0.438736,0.1531067-0.8086948
		c0-0.6824989-0.2073669-1.0238552-0.6219177-1.0238552h-1.234375v2.085989H261.6576843z"/>
	<path class="st2" d="M265.5522461,22.6415749v-3.8182125c0-0.6059418,0.1676331-1.0413113,0.5024719-1.3061085
		c0.3348389-0.2647991,0.7352905-0.3973026,1.2009277-0.3973026c1.0589905,0.0065212,2.0923157,0.0513191,3.1004028,0.133976
		v1.3971806h-2.6027832c-0.1722412,0-0.3062134,0.0416431-0.4019165,0.1245117
		c-0.0957031,0.0828667-0.1434326,0.2073784-0.1434326,0.3731136v0.7847176l2.6793213,0.0956955v1.3014832l-2.6793213,0.0860214
		v0.746439c0,0.1913948,0.046051,0.3333626,0.1386108,0.4259052c0.0925293,0.0925426,0.2120056,0.1386032,0.3587952,0.1386032
		h2.6507263v1.3877144c-0.7653809,0.0956974-1.7640076,0.1497498-2.9950256,0.1625805
		C266.1552429,24.2778931,265.5522461,23.7325249,265.5522461,22.6415749z"/>
	<path class="st2" d="M273.7628479,17.1199512h2.066864l2.1627502,7.100523h-1.7128906l-0.3636475-1.2918072h-2.2584534
		l-0.3539734,1.2918072h-1.7033997L273.7628479,17.1199512z M275.5331421,21.4454651l-0.7464294-2.9091949l-0.7464294,2.9091949
		H275.5331421z"/>
	<path class="st2" d="M230.5672302,26.3964825h2.9857635c0.6570435,0,1.1689758,0.1739368,1.5357819,0.5216026
		c0.366806,0.3478737,0.5502014,0.9521332,0.5502014,1.8134079c0,0.5741844-0.0908661,1.0047169-0.272583,1.2918072
		c-0.1819305,0.2870922-0.4355774,0.5136108-0.7607422,0.6795559l1.2726746,2.7941494h-1.6842651l-1.0621338-2.5261974
		c-0.1787872-0.0063095-0.4818573-0.0096741-0.9090271-0.0096741v2.5358715h-1.6556702V26.3964825z M233.2562256,29.6501865
		c0.2424927,0,0.4242249-0.0685654,0.545578-0.2056961c0.1211395-0.1371307,0.1817169-0.3716412,0.1817169-0.7035313
		c0-0.325161-0.0605774-0.5502071-0.1817169-0.674509c-0.1213531-0.1245117-0.3030853-0.1865559-0.545578-0.1865559h-1.0333252
		v1.7702923H233.2562256z"/>
	<path class="st2" d="M237.3995972,26.3964825h1.6556702v7.100523h-1.6556702V26.3964825z"/>
	<path class="st2" d="M241.925766,33.2673302c-0.3699646-0.1913948-0.6553802-0.5502052-0.8564453-1.0764351
		c-0.2008514-0.5264397-0.3013916-1.2806587-0.3013916-2.2632904c0-0.9504528,0.1036835-1.6872158,0.3110657-2.2105007
		c0.2071686-0.5230751,0.4990997-0.8850422,0.8755798-1.0861111c0.3762665-0.2008591,0.8482361-0.3013935,1.4161072-0.3013935
		c0.4848022,0,0.9218445,0.0351238,1.3111572,0.1051617c0.3888855,0.0704575,0.7111053,0.1564808,0.9664307,0.2584877v1.2823429
		c-0.5870056-0.1085281-1.2280731-0.1627903-1.9234009-0.1627903c-0.3445129,0-0.6061554,0.0525799-0.7847137,0.1579514
		c-0.1787872,0.1051636-0.3096008,0.3079147-0.3922577,0.607626c-0.0830841,0.299921-0.1245117,0.7527485-0.1245117,1.3589001
		c0,0.5933228,0.0349121,1.0381565,0.1053772,1.3349228c0.0700378,0.2965565,0.1974945,0.5039368,0.3825684,0.6219273
		c0.1850891,0.1182003,0.4593506,0.1770916,0.822998,0.1770916c0.8612823,0,1.4991913-0.0319672,1.9139404-0.0956955v1.282341
		c-0.5424194,0.1977043-1.3046265,0.2965584-2.2870483,0.2965584
		C242.7742004,33.5544243,242.2957153,33.458725,241.925766,33.2673302z"/>
	<path class="st2" d="M247.2463074,31.9181061v-3.8182144c0-0.6059418,0.1676331-1.0413113,0.5024719-1.3061085
		s0.7352905-0.3973007,1.200943-0.3973007c1.0589752,0.0065193,2.0923004,0.0513191,3.1003876,0.133976v1.3971786h-2.6027527
		c-0.1722565,0-0.3062439,0.0416451-0.4019318,0.1245117c-0.0957031,0.0828667-0.1434479,0.2073784-0.1434479,0.3731136V29.20998
		l2.6793213,0.0956974v1.3014812l-2.6793213,0.0860233v0.7464371c0,0.1913948,0.0460663,0.3333645,0.1386108,0.4259052
		c0.0925446,0.0925426,0.2120056,0.1386032,0.3588104,0.1386032h2.6507111v1.3877144
		c-0.7653809,0.0956993-1.7639923,0.1497498-2.9950104,0.1625824
		C247.8493042,33.5544243,247.2463074,33.0090523,247.2463074,31.9181061z"/>
	<path class="st2" d="M253.7629852,26.3964825h2.985733c0.657074,0,1.1690063,0.1739368,1.5357971,0.5216026
		c0.3667908,0.3478737,0.5502014,0.9521332,0.5502014,1.8134079c0,0.5741844-0.0908508,1.0047169-0.272583,1.2918072
		c-0.1819153,0.2870922-0.4355774,0.5136108-0.7607422,0.6795559l1.2726746,2.7941494h-1.6842651l-1.0621338-2.5261974
		c-0.178772-0.0063095-0.4818573-0.0096741-0.9090271-0.0096741v2.5358715h-1.6556549V26.3964825z M256.4519653,29.6501865
		c0.2424927,0,0.4242249-0.0685654,0.5455933-0.2056961c0.1211243-0.1371307,0.1817017-0.3716412,0.1817017-0.7035313
		c0-0.325161-0.0605774-0.5502071-0.1817017-0.674509c-0.1213684-0.1245117-0.3031006-0.1865559-0.5455933-0.1865559h-1.0333252
		v1.7702923H256.4519653z"/>
	<path class="st2" d="M261.5714417,33.2673302c-0.3699646-0.1913948-0.655365-0.5502052-0.8564148-1.0764351
		c-0.2008667-0.5264397-0.3014221-1.2806587-0.3014221-2.2632904c0-0.9504528,0.1036987-1.6872158,0.3110962-2.2105007
		c0.2071533-0.5230751,0.4990845-0.8850422,0.8755493-1.0861111c0.3762817-0.2008591,0.8482361-0.3013935,1.4161377-0.3013935
		c0.4847717,0,0.9218445,0.0351238,1.3111267,0.1051617c0.388916,0.0704575,0.7111206,0.1564808,0.9664612,0.2584877v1.2823429
		c-0.5870361-0.1085281-1.2280884-0.1627903-1.9234314-0.1627903c-0.3444824,0-0.6061401,0.0525799-0.7846985,0.1579514
		c-0.178772,0.1051636-0.3096008,0.3079147-0.3922729,0.607626c-0.0830688,0.299921-0.1245117,0.7527485-0.1245117,1.3589001
		c0,0.5933228,0.0349426,1.0381565,0.1053772,1.3349228c0.0700378,0.2965565,0.1975098,0.5039368,0.3825989,0.6219273
		c0.1850586,0.1182003,0.4593506,0.1770916,0.822998,0.1770916c0.8612671,0,1.499176-0.0319672,1.9139404-0.0956955v1.282341
		c-0.5424194,0.1977043-1.304657,0.2965584-2.2870789,0.2965584
		C262.4198914,33.5544243,261.9414062,33.458725,261.5714417,33.2673302z"/>
	<path class="st2" d="M268.6816406,26.3964825h2.066864l2.1627502,7.100523h-1.7128906l-0.3636475-1.2918091h-2.2584534
		l-0.3539734,1.2918091h-1.7033997L268.6816406,26.3964825z M270.4519348,30.7219963l-0.7464294-2.9091949l-0.7464294,2.9091949
		H270.4519348z"/>
	<path class="st2" d="M230.5672302,35.6730118h2.8709259c1.397171,0,2.0956573,0.6284485,2.0956573,1.8853416
		c0,0.4147568-0.0830688,0.7527466-0.2488098,1.0141792c-0.1659393,0.2616425-0.4084473,0.4338989-0.7272949,0.5167656
		c0.3445129,0.0830765,0.6299133,0.2713165,0.8564301,0.5647163c0.2263184,0.2934036,0.3396759,0.6827126,0.3396759,1.1672974
		c0,0.6955414-0.1802521,1.1948471-0.5405273,1.497715c-0.3605042,0.3030739-0.9077606,0.4545097-1.6411591,0.4545097h-3.0048981
		V35.6730118z M233.4381561,38.5342522c0.1657257,0,0.2948761-0.0635147,0.3874054-0.1913948
		c0.0925446-0.1274529,0.1388245-0.29319,0.1388245-0.4974136c0-0.2425041-0.0511169-0.4179115-0.1531219-0.5264397
		c-0.102005-0.1083183-0.2296753-0.1625786-0.382782-0.1625786h-1.2055817v1.3778267H233.4381561z M233.5241699,41.2903328
		c0.2105408,0,0.3733368-0.0637283,0.4881592-0.1913948c0.1148376-0.1276665,0.1722565-0.3190613,0.1722565-0.5741806
		c0-0.2296753-0.0590973-0.4099236-0.1770935-0.5407448c-0.1181946-0.1306114-0.2790985-0.196022-0.4833221-0.196022h-1.3012695
		v1.5023422H233.5241699z"/>
	<path class="st2" d="M237.4187317,35.6730118h1.6556702v7.1005249h-1.6556702V35.6730118z"/>
	<path class="st2" d="M242.0740356,42.5438614c-0.4242249-0.1913948-0.744751-0.5468407-0.9615936-1.0669708
		c-0.2170563-0.5199203-0.3253784-1.2709846-0.3253784-2.2536163c0-0.9822121,0.1083221-1.7351685,0.3253784-2.2582436
		c0.2168427-0.5230751,0.5373688-0.8804169,0.9615936-1.0718117c0.4242249-0.191391,0.9904175-0.2870903,1.6985779-0.2870903
		s1.274353,0.0956993,1.6985626,0.2870903c0.4242249,0.1913948,0.7447662,0.5487366,0.9618225,1.0718117
		c0.2168427,0.5230751,0.3253632,1.2760315,0.3253632,2.2582436c0,0.9826317-0.1085205,1.733696-0.3253632,2.2536163
		c-0.2170563,0.5201302-0.5375977,0.875576-0.9618225,1.0669708c-0.4242096,0.1913948-0.9904022,0.2870903-1.6985626,0.2870903
		S242.4982605,42.7352562,242.0740356,42.5438614z M244.5956116,41.1803322
		c0.1850739-0.1116791,0.3159027-0.3173752,0.3924561-0.6172981c0.0765533-0.2997093,0.1148376-0.7464371,0.1148376-1.3397598
		c0-0.6124611-0.0382843-1.0684433-0.1148376-1.3683662c-0.0765533-0.2997093-0.2059021-0.5024643-0.387619-0.6076241
		c-0.1819305-0.1053734-0.4578857-0.1579514-0.8278351-0.1579514c-0.3636475,0-0.6362305,0.052578-0.818161,0.1579514
		c-0.1817169,0.1051598-0.3125458,0.3079147-0.3922577,0.6076241c-0.0799255,0.2999229-0.1196747,0.7559052-0.1196747,1.3683662
		c0,0.5933228,0.0382843,1.0400505,0.1148376,1.3397598c0.0765533,0.2999229,0.2071686,0.505619,0.3922577,0.6172981
		c0.1850891,0.1116829,0.4593506,0.1674194,0.822998,0.1674194S244.4105225,41.2920151,244.5956116,41.1803322z"/>
	<path class="st2" d="M254.3659821,42.7735367l-0.5070953-4.201004l-1.0718079,4.201004h-1.550293l-1.0716095-4.1435852
		l-0.4784851,4.1435852h-1.5982361l0.8326721-7.1005249h1.5692139l1.5408325,5.1962547l1.5309448-5.1962547h1.550293
		l0.8421326,7.1005249H254.3659821z"/>
	<path class="st2" d="M257.4663696,41.1946373v-3.8182144c0-0.6059418,0.1676025-1.0413132,0.5024414-1.3061104
		s0.7352905-0.3973007,1.2009583-0.3973007c1.0589905,0.0065193,2.0922852,0.0513191,3.1003723,0.133976v1.3971786h-2.6027527
		c-0.1722412,0-0.3062439,0.0416451-0.4019165,0.1245117c-0.0957031,0.0828667-0.1434631,0.2073784-0.1434631,0.3731155v0.7847176
		l2.6793213,0.0956955v1.3014832l-2.6793213,0.0860214v0.7464371c0,0.1913948,0.0460815,0.3333626,0.1386108,0.4259071
		c0.0925598,0.0925407,0.2120056,0.1386032,0.3588257,0.1386032h2.6506958v1.3877144
		c-0.7653503,0.0956955-1.7639771,0.1497498-2.9949951,0.1625786
		C258.0693665,42.8309517,257.4663696,42.2855835,257.4663696,41.1946373z"/>
	<path class="st2" d="M263.9830322,35.6730118h3.0717773c0.9315186,0,1.5852051,0.3110695,1.9616699,0.9332047
		c0.3764954,0.6219292,0.5647278,1.4975052,0.5647278,2.6267319c0,1.2120934-0.2073975,2.1051292-0.6221313,2.6793098
		c-0.4147644,0.5741844-1.0493164,0.8612785-1.9042664,0.8612785h-3.0717773V35.6730118z M266.8922119,41.2903328
		c0.382782,0,0.6522217-0.1627884,0.8084717-0.4881592c0.1562805-0.3253708,0.2345276-0.8482361,0.2345276-1.5692253
		c0-0.5678749-0.039978-1.0015602-0.1196899-1.3014832c-0.0797119-0.2997093-0.1928406-0.503933-0.3396606-0.6124611
		c-0.1467896-0.1083183-0.3413391-0.1625786-0.5836487-0.1625786h-1.25354v4.1339073H266.8922119z"/>
	<path class="st2" d="M271.3035278,35.6730118h1.6556702v7.1005249h-1.6556702V35.6730118z"/>
	<path class="st2" d="M275.8297119,42.5438614c-0.3699646-0.1913948-0.655365-0.5502052-0.8564453-1.0764351
		c-0.2008667-0.5264397-0.3013916-1.2806625-0.3013916-2.2632904c0-0.9504547,0.1036987-1.6872177,0.3110657-2.2105026
		c0.2071838-0.5230751,0.4990845-0.8850403,0.8755798-1.0861092c0.3762512-0.2008591,0.8482361-0.3013954,1.4161072-0.3013954
		c0.4848022,0,0.9218445,0.0351257,1.3111572,0.1051636c0.3888855,0.0704575,0.7110901,0.1564789,0.9664307,0.2584877v1.282341
		c-0.5870056-0.1085281-1.2280884-0.1627884-1.9234009-0.1627884c-0.3445129,0-0.6061707,0.052578-0.784729,0.1579514
		c-0.178772,0.1051598-0.3096008,0.3079147-0.3922424,0.6076241c-0.0830688,0.2999229-0.1245117,0.7527466-0.1245117,1.358902
		c0,0.5933228,0.0349121,1.0381546,0.1053772,1.3349228c0.0700378,0.2965546,0.1974792,0.503933,0.3825684,0.6219254
		c0.1850891,0.1182022,0.4593506,0.1770935,0.822998,0.1770935c0.8612671,0,1.499176-0.031971,1.9139404-0.0956955v1.282341
		c-0.5424194,0.1977043-1.3046265,0.2965546-2.2870483,0.2965546
		C276.6781616,42.8309517,276.1996765,42.7352562,275.8297119,42.5438614z"/>
	<path class="st2" d="M282.9399109,35.6730118h2.0668335l2.1627502,7.1005249h-1.7128601l-0.3636475-1.2918091h-2.2584534
		l-0.3539734,1.2918091h-1.7034302L282.9399109,35.6730118z M284.7102051,39.9985275l-0.74646-2.9091949l-0.7464294,2.9091949
		H284.7102051z"/>
	<path class="st2" d="M231.7156067,51.8395309c-0.3890991-0.178566-0.6841888-0.5230751-0.8850403-1.0335312
		c-0.2010803-0.5102425-0.3016052-1.2629929-0.3016052-2.2582436s0.102005-1.7528343,0.3062286-2.2727547
		s0.5007782-0.8724213,0.8900909-1.0575066c0.3888855-0.1848755,0.915329-0.2774162,1.5789032-0.2774162
		c0.676178,0,1.2089386,0.0925407,1.5980377,0.2774162c0.3890991,0.1850853,0.6841736,0.5375862,0.8852386,1.0575066
		c0.2008667,0.5199203,0.3014069,1.277504,0.3014069,2.2727547s-0.1005402,1.7480011-0.3014069,2.2582436
		c-0.2010651,0.5104561-0.4961395,0.8549652-0.8852386,1.0335312c-0.3890991,0.1787758-0.9218597,0.267952-1.5980377,0.267952
		C232.6342926,52.1074829,232.1047058,52.0183067,231.7156067,51.8395309z M234.3951263,51.0453491
		c0.2549133-0.133976,0.4402008-0.3924637,0.5548248-0.7752533c0.1148376-0.3827896,0.1722565-0.9567604,0.1722565-1.7223396
		c0-0.7975464-0.0574188-1.3906593-0.1722565-1.7799683c-0.114624-0.3890991-0.298233-0.6473732-0.5502014-0.7750397
		s-0.6170807-0.1913948-1.0955658-0.1913948c-0.4593506,0-0.8150177,0.0654106-1.0669861,0.196022
		c-0.2521667,0.131031-0.4402008,0.3909912-0.5647125,0.7800903c-0.1242981,0.3890953-0.186554,0.9792633-0.186554,1.7702904
		c0,0.7718887,0.0557404,1.3477554,0.1674194,1.7271767c0.1116791,0.3796349,0.293396,0.6364403,0.545578,0.7704163
		c0.2519684,0.133976,0.6202393,0.2008591,1.1052551,0.2008591
		C233.7761383,51.2462082,234.1397858,51.1793251,234.3951263,51.0453491z"/>
	<path class="st2" d="M238.1748505,44.9974976h0.7847137l3.454361,5.4065742v-5.4065742h0.9569702v7.0525665h-0.7750397
		l-3.4545746-5.4065742v5.4065742h-0.9664307V44.9974976z"/>
	<path class="st2" d="M245.8110657,51.705555c-0.255127-0.2296715-0.382782-0.6124611-0.382782-1.148365v-5.5596924h0.9666443
		v5.4162483c0,0.2870941,0.0668793,0.4847984,0.2008514,0.5933228c0.1339722,0.1085281,0.3188477,0.1625824,0.5550537,0.1625824
		h2.4401703v0.8804131h-2.6698456C246.4363556,52.0500641,246.0661926,51.9352264,245.8110657,51.705555z"/>
	<path class="st2" d="M251.7295685,51.6050186c-0.4496765-0.3348351-0.6747131-0.923317-0.6747131-1.7654533v-4.8420677h0.9666443
		v4.8323936c0,0.5167618,0.1402893,0.8804131,0.4210663,1.0909462c0.2805786,0.2105331,0.6984863,0.3159065,1.2535248,0.3159065
		c0.5613556,0,0.9822083-0.1053734,1.2632141-0.3159065c0.2805634-0.2105331,0.4208527-0.5741844,0.4208527-1.0909462v-4.8323936
		h0.9666443v4.8420677c0,0.8421364-0.226532,1.4306183-0.6795502,1.7654533
		c-0.4530334,0.3350487-1.1098785,0.5024643-1.9711609,0.5024643
		C252.8348236,52.1074829,252.179245,51.9400673,251.7295685,51.6050186z"/>
	<path class="st2" d="M259.3178406,52.0549011c-0.430542-0.0351219-0.7704163-0.0813942-1.0192261-0.138813V51.169651
		c0.5295715,0.0511093,1.2345886,0.0765572,2.1148071,0.0765572c0.4530334,0,0.803833-0.0683556,1.0526428-0.2056961
		c0.2488403-0.1371307,0.3733521-0.3876266,0.3733521-0.7512741v-0.411396c0-0.5933228-0.315918-0.8898773-0.9475098-0.8898773
		h-0.7176208c-0.6316223,0-1.1101074-0.138813-1.4354858-0.4164391c-0.3253479-0.27742-0.4879456-0.731926-0.4879456-1.3635292
		v-0.3922539c0-0.6507416,0.1770935-1.1260719,0.5310669-1.4259949c0.3539734-0.2997093,0.881897-0.4496689,1.5837402-0.4496689
		c0.3062439,0,0.6570435,0.0225029,1.0526733,0.0668831c0.3954163,0.044796,0.7333984,0.0925407,1.0144043,0.1436501v0.7464371
		l-0.2010803-0.0096741c-0.8166809-0.0574188-1.4035034-0.0860214-1.7608337-0.0860214
		c-0.4338989,0-0.7592773,0.0765572-0.9758911,0.2296715c-0.2170715,0.1531181-0.3253784,0.4305344-0.3253784,0.8324623v0.2870903
		c0,0.3316803,0.0874939,0.5678749,0.2631226,0.7081604c0.175415,0.1402855,0.4385071,0.2105331,0.7893372,0.2105331h0.775238
		c0.5741882,0,1.0110474,0.1547966,1.3109741,0.463974c0.2996826,0.309597,0.449646,0.7195168,0.449646,1.229763v0.4976234
		c0,0.6953316-0.2008362,1.1769714-0.6027832,1.4449234c-0.4019165,0.267952-0.9697876,0.4019279-1.7033997,0.4019279
		C260.1265259,52.1074829,259.7483521,52.089817,259.3178406,52.0549011z"/>
</g>
<g>
	<linearGradient id="SVGID_3_" gradientUnits="userSpaceOnUse" x1="30.1651936" y1="6.776906" x2="30.1651936" y2="1.818989e-12">
		<stop  offset="0" style="stop-color:#2C4390"/>
		<stop  offset="1" style="stop-color:#008ED2"/>
	</linearGradient>
	<path class="st3" d="M27.9698296,6.1290245c-0.2066936,0.6410146,0.0693207,0.8406358,0.613369,0.443603l0.5919991-0.4320278
		c0.5440483-0.3970327,1.4343109-0.3970366,1.9783611-0.0000086l0.5920334,0.432045
		c0.5440502,0.397028,0.8200703,0.197403,0.6133747-0.4436116L32.1324463,5.426527
		c-0.2066975-0.6410141,0.0717049-1.4870281,0.6186714-1.8800306l0.6216774-0.4466834
		c0.5469666-0.3930025,0.4434242-0.71455-0.2300911-0.71455h-0.7688751c-0.6735153,0-1.392889-0.5247232-1.598608-1.1660514
		L30.5384102,0.48096c-0.205719-0.6413283-0.5421772-0.6412729-0.7476864,0.0001231l-0.2375355,0.7413504
		c-0.2055073,0.6413959-0.9247074,1.1656013-1.5982227,1.1649008l-0.7672024-0.0007977
		c-0.6735153-0.0007005-0.777153,0.32041-0.2303066,0.7135789l0.6204357,0.4460785
		c0.5468464,0.3931689,0.8251514,1.2393188,0.6184578,1.8803334L27.9698296,6.1290245z"/>
</g>
<g>
	<linearGradient id="SVGID_4_" gradientUnits="userSpaceOnUse" x1="16.8619556" y1="10.3505821" x2="16.8619556" y2="3.5704224">
		<stop  offset="0" style="stop-color:#2C4390"/>
		<stop  offset="1" style="stop-color:#008ED2"/>
	</linearGradient>
	<path class="st4" d="M14.6676588,9.7025461c-0.2063837,0.6411152,0.06989,0.8408213,0.6139393,0.4437923l0.5920343-0.4320459
		c0.5440502-0.3970289,1.4342117-0.3968906,1.9781399,0.0003071l0.590807,0.4314318
		c0.5439262,0.3971987,0.8200989,0.1976299,0.6137161-0.4434853l-0.2260246-0.7021313
		c-0.2063808-0.6411152,0.0721798-1.4873476,0.6190262-1.8805165L20.0697327,6.67382
		c0.5468464-0.3931689,0.4432087-0.7148528-0.2303066-0.7148528h-0.7688313c-0.6735153,0-1.3927212-0.5247765-1.598238-1.1661696
		l-0.2375488-0.741365c-0.2055168-0.6413932-0.5416489-0.64134-0.7469635,0.0001183l-0.238287,0.7444787
		c-0.2053127,0.6414585-0.9243546,1.1657143-1.5978689,1.1650124l-0.7672052-0.0007992
		c-0.6735144-0.0007014-0.7771502,0.3204045-0.2303009,0.7135692l0.620471,0.446095
		c0.5468493,0.3931642,0.8254128,1.2393928,0.61903,1.8805079L14.6676588,9.7025461z"/>
</g>
<g>
	<linearGradient id="SVGID_5_" gradientUnits="userSpaceOnUse" x1="7.1299114" y1="20.1053543" x2="7.1299114" y2="13.3251266">
		<stop  offset="0" style="stop-color:#2C4390"/>
		<stop  offset="1" style="stop-color:#008ED2"/>
	</linearGradient>
	<path class="st5" d="M7.5035501,13.8061361c-0.205514-0.6413946-0.541636-0.6413393-0.7469387,0.000123l-0.2382832,0.7445087
		c-0.2053027,0.6414623-0.924335,1.16572-1.5978494,1.165019L4.153276,15.7149878
		c-0.6735146-0.0007019-0.7771525,0.3204088-0.2303064,0.7135763l0.6204364,0.4460793
		c0.5468464,0.3931694,0.8251519,1.2393188,0.6184568,1.8803329l-0.2265196,0.7024975
		c-0.2066951,0.6410141,0.0693202,0.8406353,0.6133671,0.4436016l0.5920024-0.4320297
		c0.5440469-0.3970337,1.4343081-0.3970375,1.9783573-0.0000076l0.5920343,0.432045
		c0.5440502,0.3970299,0.8200674,0.1974049,0.6133728-0.4436092l-0.2265196-0.7024975
		c-0.2066946-0.6410141,0.0716105-1.4871635,0.6184568-1.8803329l0.6204386-0.4460793
		c0.5468464-0.3931694,0.4432087-0.7148523-0.2303066-0.7148523H9.3393421c-0.6735144,0-1.3927202-0.5247765-1.5982337-1.1661711
		L7.5035501,13.8061361z"/>
</g>
<g>
	<linearGradient id="SVGID_6_" gradientUnits="userSpaceOnUse" x1="3.5587585" y1="33.3901253" x2="3.5587585" y2="26.609972">
		<stop  offset="0" style="stop-color:#2C4390"/>
		<stop  offset="1" style="stop-color:#008ED2"/>
	</linearGradient>
	<path class="st6" d="M2.5703497,32.753849c0.5440516-0.3970261,1.4342198-0.3968925,1.9781513,0.0002975l0.5907893,0.4314079
		c0.5439315,0.3971939,0.8201146,0.1976166,0.6137404-0.4435005L5.52702,32.0399323
		c-0.2063742-0.641119,0.0721974-1.4873486,0.6190481-1.8805103l0.6204209-0.4460583
		c0.5468502-0.3931618,0.4432154-0.7148418-0.2302995-0.7148418H5.7689881c-0.6735148,0-1.3927202-0.5247765-1.5982337-1.1661701
		l-0.2375588-0.7414055c-0.2055135-0.6413937-0.5414701-0.6412868-0.7465701,0.0002403L2.9476056,27.83881
		c-0.2050998,0.6415272-0.9239655,1.165266-1.5974791,1.1638622l-0.7688818-0.0016003
		c-0.6735135-0.0014019-0.7770492,0.3189926-0.2300792,0.7119904l0.6216612,0.446661
		c0.54697,0.3929977,0.8253769,1.239006,0.618682,1.880022L1.364989,32.7422409
		c-0.206695,0.6410141,0.0693243,0.840641,0.6133759,0.443615L2.5703497,32.753849z"/>
</g>
<g>
	<linearGradient id="SVGID_7_" gradientUnits="userSpaceOnUse" x1="7.1299114" y1="46.7148209" x2="7.1299114" y2="39.9349937">
		<stop  offset="0" style="stop-color:#2C4390"/>
		<stop  offset="1" style="stop-color:#008ED2"/>
	</linearGradient>
	<path class="st7" d="M9.3393421,42.3235779c-0.6735144,0-1.3927202-0.5247765-1.5982337-1.166172l-0.2375584-0.7414055
		c-0.205514-0.6413918-0.541636-0.6413383-0.7469387,0.0001259l-0.2382832,0.7445068
		c-0.2053027,0.6414642-0.924335,1.1657219-1.5978494,1.16502L4.153276,42.324852
		c-0.6735146-0.0006981-0.7771525,0.3204117-0.2303064,0.7135773l0.6204364,0.4460793
		c0.5468464,0.3931694,0.8251519,1.2393188,0.6184568,1.8803329l-0.2265196,0.7024994
		c-0.2066951,0.6410141,0.0690446,0.8402557,0.6127539,0.4427605l0.5932288-0.4336967
		c0.5437093-0.3974953,1.4334188-0.3974991,1.9771318-0.0000076l0.5932598,0.433712
		c0.5437126,0.3974915,0.8194542,0.198246,0.6127596-0.4427681l-0.2265196-0.7024994
		c-0.2066946-0.6410141,0.0716105-1.4871635,0.6184568-1.8803329l0.6204386-0.4460793
		c0.5468464-0.3931694,0.4432087-0.7148514-0.2303066-0.7148514H9.3393421z"/>
</g>
<g>
	<linearGradient id="SVGID_8_" gradientUnits="userSpaceOnUse" x1="16.8821011" y1="56.4665451" x2="16.8821011" y2="49.6897202">
		<stop  offset="0" style="stop-color:#2C4390"/>
		<stop  offset="1" style="stop-color:#008ED2"/>
	</linearGradient>
	<path class="st8" d="M19.0906944,52.0749283c-0.6735153,0-1.3928833-0.5247231-1.5985947-1.1660538l-0.2367954-0.7382431
		c-0.2057114-0.6413307-0.5419121-0.6411972-0.7471104,0.0002975l-0.2370281,0.7409973
		c-0.2051983,0.6414948-0.9241457,1.1657791-1.5976601,1.1650772l-0.768878-0.0007973
		c-0.6735153-0.0007019-0.777153,0.3204079-0.2303066,0.7135773l0.6204367,0.4460754
		c0.5468454,0.3931694,0.8254137,1.2394066,0.6190395,1.8805237l-0.2260103,0.7021217
		c-0.2063742,0.6411171,0.0699062,0.8408279,0.6139565,0.4437981l0.5920324-0.432045
		c0.5440502-0.3970261,1.4342117-0.3968849,1.9781342,0.0003166l0.5907745,0.4314117
		c0.5439243,0.3972015,0.8201008,0.1976357,0.6137276-0.4434814l-0.2260113-0.7021217
		c-0.2063732-0.6411171,0.0721931-1.4873543,0.6190395-1.8805199l0.6204395-0.4460793
		c0.5468464-0.3931694,0.4432087-0.7148552-0.2303066-0.7148552H19.0906944z"/>
</g>
<g>
	<linearGradient id="SVGID_9_" gradientUnits="userSpaceOnUse" x1="30.1668682" y1="60" x2="30.1668682" y2="53.2198524">
		<stop  offset="0" style="stop-color:#2C4390"/>
		<stop  offset="1" style="stop-color:#008ED2"/>
	</linearGradient>
	<path class="st9" d="M32.3755035,55.608387c-0.6735153,0-1.3927135-0.5247765-1.5982189-1.1661758l-0.237545-0.7413979
		c-0.2055054-0.6413956-0.5413685-0.6412621-0.7463627,0.0002975l-0.2377739,0.7441521
		c-0.2049942,0.6415634-0.9237728,1.1659012-1.5972881,1.1651993l-0.768877-0.0007973
		c-0.6735153-0.0007019-0.777153,0.3204079-0.2303066,0.7135773l0.6204357,0.4460754
		c0.5468464,0.3931694,0.8254147,1.2394066,0.6190395,1.8805237l-0.2260094,0.7021179
		c-0.2063732,0.6411171,0.0699062,0.8408279,0.6139565,0.4437981l0.5920315-0.4320412
		c0.5440502-0.3970261,1.4342117-0.3968849,1.9781361,0.0003166l0.5907726,0.4314117
		c0.5439262,0.3972015,0.8198395,0.1977158,0.6131439-0.4432983l-0.2265167-0.7024918
		c-0.2066956-0.6410141,0.0717087-1.48703,0.6186714-1.8800316l0.6216774-0.4466858
		c0.5469666-0.3930016,0.4434242-0.71455-0.2300873-0.71455H32.3755035z"/>
</g>
<g>
	<linearGradient id="SVGID_10_" gradientUnits="userSpaceOnUse" x1="43.4524765" y1="56.4666023" x2="43.4524765" y2="49.6896667">
		<stop  offset="0" style="stop-color:#2C4390"/>
		<stop  offset="1" style="stop-color:#008ED2"/>
	</linearGradient>
	<path class="st10" d="M45.6603127,52.0749283c-0.6735115,0-1.3926277-0.5248032-1.5980301-1.1662331l-0.23629-0.7378845
		c-0.2053986-0.6414299-0.5418587-0.6415405-0.7476845-0.0002441l-0.2380562,0.7417221
		c-0.2058258,0.6412964-0.9252853,1.1654167-1.5988007,1.1647148l-0.7655296-0.0007973
		c-0.6735115-0.0007019-0.7772484,0.3205452-0.2305222,0.7138786l0.6191978,0.4454727
		c0.5467262,0.3933372,0.8251953,1.2397079,0.6188202,1.880825l-0.2260094,0.7021217
		c-0.2063751,0.6411171,0.0699043,0.8408241,0.6139488,0.4437904l0.5920029-0.4320297
		c0.5440483-0.3970299,1.4343071-0.3970337,1.9783592-0.0000076l0.5920334,0.432045
		c0.5440483,0.3970299,0.8198051,0.1974869,0.6127892-0.4434242l-0.2270279-0.7028732
		c-0.207016-0.6409111,0.071125-1.4868393,0.6180916-1.8798409l0.6216736-0.4466858
		c0.5469666-0.3930016,0.443428-0.71455-0.2300873-0.71455H45.6603127z"/>
</g>
<g>
	<linearGradient id="SVGID_11_" gradientUnits="userSpaceOnUse" x1="53.2039108" y1="46.7148476" x2="53.2039108" y2="39.9348831">
		<stop  offset="0" style="stop-color:#2C4390"/>
		<stop  offset="1" style="stop-color:#008ED2"/>
	</linearGradient>
	<path class="st11" d="M55.4150162,42.3235779c-0.6735153,0-1.3929749-0.5246964-1.5987968-1.1659927l-0.2380676-0.7417641
		c-0.205822-0.6412926-0.5424614-0.641243-0.7480888,0.0001144l-0.2388191,0.7448883
		c-0.2056274,0.6413574-0.9249268,1.1655312-1.5984421,1.1648293l-0.765522-0.0007973
		c-0.6735153-0.0007019-0.7770576,0.3202705-0.2300911,0.7132721l0.6216736,0.446682
		c0.5469666,0.3930054,0.8251076,1.2389336,0.6180916,1.8798447l-0.2270279,0.7028732
		c-0.207016,0.6409111,0.0684624,0.8400726,0.612175,0.4425812l0.5932617-0.433712
		c0.5437126-0.3974915,1.4334221-0.3974876,1.9771309,0.0000076l0.5932274,0.4336967
		c0.5437088,0.3974953,0.8191872,0.1983376,0.6121712-0.4425735l-0.2270279-0.7028732
		c-0.207016-0.6409111,0.071125-1.4868393,0.6180916-1.8798447l0.6216774-0.446682
		c0.5469627-0.3930016,0.4434242-0.71455-0.2300911-0.71455H55.4150162z"/>
</g>
<g>
	<linearGradient id="SVGID_12_" gradientUnits="userSpaceOnUse" x1="56.7356911" y1="33.3527985" x2="56.7356911" y2="26.5730362">
		<stop  offset="0" style="stop-color:#2C4390"/>
		<stop  offset="1" style="stop-color:#008ED2"/>
	</linearGradient>
	<path class="st12" d="M59.9440918,29.6761341c0.5469666-0.3930016,0.4434242-0.71455-0.2300911-0.71455h-0.7688751
		c-0.6735153,0-1.3929825-0.5246944-1.5988121-1.1659851l-0.2380753-0.7417393
		c-0.2058296-0.6412907-0.5419579-0.6410694-0.7469444,0.0004921l-0.237751,0.7441006
		c-0.2049866,0.6415634-0.9237633,1.165905-1.5972786,1.165205l-0.7688828-0.0008011
		c-0.6735115-0.0007-0.7770538,0.3202744-0.2300873,0.7132778l0.6216774,0.4466839
		c0.5469666,0.3930016,0.8256302,1.2391014,0.6192551,1.8802185l-0.2260094,0.7021217
		c-0.2063751,0.6411171,0.0694275,0.840168,0.6128883,0.442337l0.5907784-0.4324722
		c0.5434647-0.397831,1.432972-0.3981094,1.9766846-0.000618l0.5932579,0.433712
		c0.5437126,0.3974876,0.8197174,0.1981583,0.6133423-0.4429588l-0.2260094-0.7021217
		c-0.2063751-0.6411171,0.0722923-1.4872169,0.6192589-1.8802204L59.9440918,29.6761341z"/>
</g>
<g>
	<linearGradient id="SVGID_13_" gradientUnits="userSpaceOnUse" x1="53.2039108" y1="20.065094" x2="53.2039108" y2="13.2881212">
		<stop  offset="0" style="stop-color:#2C4390"/>
		<stop  offset="1" style="stop-color:#008ED2"/>
	</linearGradient>
	<path class="st13" d="M51.0099258,19.4173737c-0.207016,0.6409111,0.0687408,0.8404503,0.6127892,0.4434223l0.5920334-0.4320431
		c0.5440483-0.3970299,1.4343109-0.3970261,1.9783592,0.0000076l0.5919991,0.4320278
		c0.5440483,0.3970318,0.8198013,0.1974964,0.6127853-0.4434147l-0.2270279-0.7028732
		c-0.207016-0.6409111,0.0713959-1.4864616,0.6186943-1.8790016l0.6204681-0.4450169
		c0.5472984-0.39254,0.4440308-0.7137079-0.2294846-0.7137079h-0.7655258c-0.6735153,0-1.3929749-0.5246954-1.5988007-1.1659899
		l-0.2380562-0.741725c-0.2058258-0.6412945-0.5424728-0.641243-0.7481003,0.0001135L52.5912476,14.51402
		c-0.2056313,0.6413574-0.9249306,1.1655293-1.5984459,1.1648273l-0.765522-0.0007973
		c-0.6735153-0.0007019-0.776783,0.3198919-0.2294846,0.7124319l0.6204643,0.4450169
		c0.5472984,0.39254,0.8257103,1.2380905,0.6186943,1.8790016L51.0099258,19.4173737z"/>
</g>
<g>
	<linearGradient id="SVGID_14_" gradientUnits="userSpaceOnUse" x1="43.4910469" y1="10.3538189" x2="43.4910469" y2="3.5738482">
		<stop  offset="0" style="stop-color:#2C4390"/>
		<stop  offset="1" style="stop-color:#008ED2"/>
	</linearGradient>
	<path class="st14" d="M43.8629189,4.0548544c-0.2053947-0.6414328-0.5411644-0.6413279-0.7461586,0.0002327l-0.2377739,0.7441497
		c-0.2049942,0.6415606-0.9237709,1.1653194-1.5972862,1.163908l-0.7688828-0.0016112
		c-0.6735153-0.0014114-0.777523,0.3196321-0.2311287,0.7134299l0.6204071,0.4471416
		c0.5463943,0.3937979,0.8245926,1.2405467,0.6182175,1.8816648l-0.2260094,0.702116
		c-0.2063751,0.641118,0.0698318,0.8407259,0.6137886,0.443572l0.5957146-0.4349394
		c0.5439606-0.3971539,1.43367-0.3966007,1.9771385,0.0012274l0.5908051,0.4324846
		c0.5434685,0.3978281,0.8192635,0.1987753,0.6128807-0.4423399l-0.2260208-0.7021246
		c-0.2063828-0.6411161,0.0720062-1.4875913,0.6186371-1.8810563l0.6228828-0.4483509
		c0.5466347-0.393465,0.4428215-0.7153916-0.2306938-0.7153916h-0.7722282c-0.6735153,0-1.3926201-0.5248084-1.5980148-1.1662407
		L43.8629189,4.0548544z"/>
</g>
</svg>
