<?xml version="1.0" encoding="utf-8"?>
<!-- Generator: Adobe Illustrator 19.0.0, SVG Export Plug-In . SVG Version: 6.00 Build 0)  -->
<svg version="1.1" id="Livello_1" xmlns="http://www.w3.org/2000/svg" xmlns:xlink="http://www.w3.org/1999/xlink" x="0px" y="0px"
	 viewBox="58 -58.5 400 400" style="enable-background:new 58 -58.5 400 400;" xml:space="preserve">
<style type="text/css">
	.st0{fill:url(#SVGID_1_);}
</style>
<linearGradient id="SVGID_1_" gradientUnits="userSpaceOnUse" x1="89" y1="143.8431" x2="429.1137" y2="143.8431">
	<stop  offset="0" style="stop-color:#E50045"/>
	<stop  offset="0.3" style="stop-color:#D5C458"/>
	<stop  offset="0.4538" style="stop-color:#A6B264"/>
	<stop  offset="1" style="stop-color:#00748F"/>
</linearGradient>
<path class="st0" d="M429,100.8c-0.1-41.6-18.8-67.9-34.5-82.5c-19.7-18.4-45.7-29-71.3-29c-19.7,0-37.6,6.5-50.3,18.3
	c-5.7,5.3-10.3,11.5-13.8,18.5c-3.7-7.5-8.5-14.1-14.6-19.6C231.3-5.5,213-12.2,192.9-12.2C141.8-12.2,89,28.8,89,97.5
	c0,14.9,2.7,31.5,8.2,49.4c3.1,10,12.8,12.4,17.6,12.3l41.6,0.1l16,42.4c1.2,3.3,4.4,5.3,7.9,5.2c3.5-0.2,6.4-2.6,7.3-5.9l22.5-85.1
	l21.4,111.3c0.7,3.6,3.7,6.2,7.3,6.5c3.6,0.3,6.9-1.9,8.1-5.4l24.1-69.4h35.8L281.2,185c-1.9,1.9-1.9,5.1,0.1,7l0.1,0.1
	c1.9,1.9,5.1,1.9,7-0.1l41.9-33.2H342c4.4,0,8-3.6,8-8s-3.6-8-8-8h-11.4l-42.2-33.4c-1.9-2-5.1-2-7-0.1l-0.1,0.1c-2,1.9-2,5.1-0.1,7
	l25.8,26.4h-41.6c-3.4,0-6.4,2.2-7.6,5.4l-16.2,46.6L219.3,78.4c-0.7-3.7-3.9-6.4-7.6-6.5c-3.7-0.1-7.1,2.3-8,5.9l-25.1,94.9
	l-9.2-24.3c-1.2-3.1-4.1-5.2-7.5-5.2l-47.2-0.1c-0.2,0-0.1,0-0.2,0c-0.6,0-1.7-0.2-2-1c-4.9-16.3-7.5-31.3-7.5-44.7
	c0-35.6,15.5-57.5,28.6-69.7c16.3-15.2,37.9-23.9,59.3-23.9c16.1,0,30.6,5.1,40.8,14.5C245,28.7,251,44.4,251,63.5c0,4.4,3.6,8,8,8
	s8-3.6,8-8c0-42.8,29-58.1,56.2-58.1c21.6,0,43.7,9,60.4,24.7C397,42.5,413,65.1,413,101.2c0,0.3,0,0.5,0,0.8
	c0.1,1,7.6,101.7-153.1,182.8c-3.9,2-5.5,6.8-3.5,10.7c1.4,2.8,4.2,4.4,7.1,4.4c1.2,0,2.4-0.3,3.6-0.9
	c38.9-19.6,71.6-42.1,97.2-66.8c20.7-20,36.8-41.4,47.9-63.8C430.4,131.8,429.3,104.7,429,100.8z"/>
</svg>
