<svg width="503" height="199" viewBox="0 0 503 199" fill="none" xmlns="http://www.w3.org/2000/svg">
<path d="M77.2 92.3V59H75.4V93.7L77.2 92.3Z" fill="#1C355D"/>
<path d="M84.9 66.5H83.1V77.4H84.9V66.5Z" fill="#1C355D"/>
<path d="M92.6001 80.5V59H90.8V81.9L92.6001 80.5Z" fill="#1C355D"/>
<path d="M64.7 61.1L73.6 67.9V65.6L65.3 59.2C65 58.9 64.5 59 64.2 59.2L54.3 67.5V59H52.5V111.5L54.2 110.2C54.3 110.2 54.3 110.1 54.4 110.1V77.3H73.8V75.5H54.4V69.8L64.7 61.1Z" fill="#1C355D"/>
<path d="M62.4 146.4V137C62.4 132.7 58.9 129.1 54.5 129.1C50.2 129.1 46.6 132.6 46.6 137V146.4H48.5V137C48.5 133.7 51.2 131 54.5 131C57.8 131 60.5 133.7 60.5 137V146.4H62.4Z" fill="#1C355D"/>
<path d="M91.9 132.7V110.2C91.9 103.8 86.4 100.8 84 99.8002L83.8 99.7002H83.4L83.2 99.8002C80.8 100.8 75.3 103.9 75.3 110.2V146.4H77.2V110.2C77.2 105.2 81.4001 102.7 83.6001 101.6C85.8001 102.6 90 105.2 90 110.2V132.7H91.9Z" fill="#1C355D"/>
<path d="M63.4 93V108.9L65.2 107.5V93H63.4Z" fill="#1C355D"/>
<path d="M92.6 42.7999H100.8C100.8 42.5999 100.7 42.2999 100.7 41.9999C100.7 41.9999 100.7 41.9999 100.7 41.8999C100.7 41.5999 100.7 41.1999 100.8 40.8999H92.5V42.7999H92.6Z" fill="#1C355D"/>
<path d="M102.2 46.1999C102 45.8999 101.9 45.6999 101.7 45.3999L98.4 47.8999V50.4999L102.9 47.0999C102.7 46.8999 102.5 46.6999 102.4 46.4999C102.3 46.3999 102.2 46.2999 102.2 46.1999Z" fill="#1C355D"/>
<path d="M98.4 35.8999L101.8 38.4999C101.9 38.1999 102.1 37.9999 102.3 37.7999C102.4 37.6999 102.5 37.4999 102.6 37.3999C102.8 37.1999 102.9 37.0999 103.1 36.8999L98.4 33.3999V35.8999Z" fill="#1C355D"/>
<path d="M73.5 127.6L55.2 113.6C55 113.5 54.8 113.4 54.6 113.4C54.4 113.4 54.2 113.4 54 113.6L33.7 129.1V129.2V131.4V146.4H35.5V130L54.6 115.5L73.5 129.9V127.6Z" fill="#1C355D"/>
<path d="M83.3 47.6L74.2 54.6V57.2L84 49.7L93.7999 57.2V54.6L84.6 47.6C84.2 47.3 83.7 47.3 83.3 47.6Z" fill="#1C355D"/>
<path d="M139.3 59V92.3L141.1 93.7V59H139.3Z" fill="#1C355D"/>
<path d="M133.4 66.5H131.6V77.4H133.4V66.5Z" fill="#1C355D"/>
<path d="M123.9 59V80.5L125.7 81.9V59H123.9Z" fill="#1C355D"/>
<path d="M113.7 105.1C113.7 102.1 111.3 99.7002 108.3 99.7002C105.3 99.7002 102.9 102.1 102.9 105.1C102.9 108.1 105.3 110.5 108.3 110.5C111.2 110.5 113.7 108.1 113.7 105.1ZM104.5 105.1C104.5 103.1 106.2 101.4 108.2 101.4C110.2 101.4 111.9 103.1 111.9 105.1C111.9 107.1 110.2 108.8 108.2 108.8C106.2 108.8 104.5 107.1 104.5 105.1Z" fill="#1C355D"/>
<path d="M10.3999 150.7H206C206.3 150.1 206.5 149.5 206.8 148.9H9.69995C9.89995 149.5 10.1999 150.1 10.3999 150.7Z" fill="#1C355D"/>
<path d="M141.1 99.7V97.6V97.4L108.8 72.7C108.6 72.6 108.4 72.5 108.2 72.5C108 72.5 107.8 72.5 107.6 72.7L75.3 97.4V97.6V99.7L108.1 74.7L141.1 99.7Z" fill="#1C355D"/>
<path d="M143 75.6002V77.4002H162.4V110.2C162.5 110.2 162.5 110.2 162.6 110.3L164.3 111.6V59.1002H162.5V67.6002L152.6 59.3002C152.3 59.0002 151.8 59.0002 151.5 59.3002L143.2 65.7002V68.0002L152.1 61.2002L162.6 70.0002V75.7002H143V75.6002Z" fill="#1C355D"/>
<path d="M169.8 146.4V137C169.8 132.7 166.3 129.1 161.9 129.1C157.6 129.1 154 132.6 154 137V146.4H155.9V137C155.9 133.7 158.6 131 161.9 131C165.2 131 167.9 133.7 167.9 137V146.4H169.8Z" fill="#1C355D"/>
<path d="M116.1 146.4V134.7C116.1 130.4 112.6 126.8 108.2 126.8C103.8 126.8 100.3 130.3 100.3 134.7V146.3H102.2V134.7C102.2 131.4 104.9 128.7 108.2 128.7C111.5 128.7 114.2 131.4 114.2 134.7V146.3H116.1V146.4Z" fill="#1C355D"/>
<path d="M141.1 146.4V110.2C141.1 103.8 135.6 100.8 133.2 99.8002L133 99.7002H132.6L132.4 99.8002C130 100.8 124.5 103.9 124.5 110.2V132.7H126.4V110.2C126.4 105.2 130.6 102.7 132.8 101.6C135 102.6 139.2 105.2 139.2 110.2V146.4H141.1Z" fill="#1C355D"/>
<path d="M153.1 108.9V93H151.3V107.5L153.1 108.9Z" fill="#1C355D"/>
<path d="M22.6 79.6C22.4 80 22.3 80.5 22.2 80.9C22.1 81.2 22 81.6 21.9 81.9C21.7 82.6 21.5 83.2 21.3 83.9C21.1 84.6 20.9 85.2 20.8 85.9C20.7 86.4 20.6 86.8 20.5 87.3C20.3 88 20.2 88.6 20 89.3C19.9 89.8 19.8 90.3 19.7 90.8C19.6 91.5 19.4 92.3 19.3 93C19.2 93.4 19.2 93.7 19.1 94.1C18.9 95.1 18.8 96 18.7 97C18.7 97.3 18.6 97.5 18.6 97.8C18.5 98.7 18.4 99.6 18.3 100.5C18.3 100.7 18.3 100.9 18.2 101.1C18.1 102.1 18.1 103.2 18 104.2C18 104.4 18 104.7 18 104.9C18 106 17.9 107.1 17.9 108.2C17.9 109.3 17.9 110.4 18 111.5C18 111.7 18 112 18 112.2C18 113.3 18.1 114.3 18.2 115.3C18.2 115.5 18.2 115.7 18.3 115.9C18.4 116.8 18.5 117.7 18.6 118.6C18.6 118.9 18.7 119.1 18.7 119.4C18.8 120.4 19 121.3 19.1 122.3C19.2 122.6 19.2 123 19.3 123.3C19.4 124.1 19.6 124.8 19.7 125.6C19.8 126.1 19.9 126.5 20 127C20.1 127.7 20.3 128.4 20.5 129.1C20.6 129.6 20.7 130 20.8 130.5C21 131.2 21.2 131.9 21.4 132.6C21.6 133.2 21.8 133.8 21.9 134.5C22 134.9 22.1 135.2 22.2 135.6C22.3 135.8 22.4 136.1 22.4 136.3H24.4C24.2 135.8 24 135.2 23.9 134.7C23.9 134.6 23.8 134.4 23.8 134.3C23.4 133.1 23.1 131.9 22.8 130.6C22.8 130.5 22.7 130.3 22.7 130.2C22 127.5 21.4 124.7 21 121.9C21 121.6 20.9 121.3 20.9 121C20.7 120 20.6 118.9 20.5 117.8C20.5 117.4 20.4 116.9 20.4 116.5C20.3 115.5 20.2 114.5 20.2 113.5C20.2 113.1 20.1 112.7 20.1 112.3C20 110.9 20 109.5 20 108.1C20 106.7 20 105.3 20.1 103.9C20.1 103.5 20.1 103.1 20.2 102.7C20.3 101.7 20.3 100.7 20.4 99.7C20.4 99.3 20.5 98.9 20.5 98.4C20.6 97.3 20.8 96.3 20.9 95.2C20.9 94.9 21 94.6 21 94.3C21.4 91.5 22 88.7 22.7 86C22.7 85.9 22.8 85.7 22.8 85.6C23.1 84.3 23.5 83.1 23.9 81.9C23.9 81.8 24 81.6 24 81.5C30.5 60.9 44.3 43.5 62.4 32.5C62.5 32.4 62.6 32.4 62.7 32.3C63.7 31.7 64.8 31.1 65.8 30.5C66.1 30.4 66.3 30.2 66.6 30.1C67.5 29.6 68.3 29.2 69.2 28.8C69.6 28.6 70.1 28.4 70.5 28.2C71.2 27.9 71.9 27.6 72.6 27.3C73.2 27 73.8 26.8 74.4 26.5C74.8 26.3 75.2 26.2 75.5 26.1C78.7 24.8 81.9 23.7 85.2 22.8C85.3 22.8 85.3 22.8 85.4 22.7C86.4 22.4 87.4 22.2 88.5 21.9C88.8 21.8 89.1 21.8 89.4 21.7C90.3 21.5 91.2 21.3 92.2 21.1C92.6 21 93.1 20.9 93.5 20.9C94.3 20.8 95.2 20.6 96 20.5C96.6 20.4 97.2 20.3 97.8 20.3C98.5 20.2 99.3 20.1 100 20.1C100.8 20 101.6 20 102.4 19.9C103 19.9 103.6 19.8 104.1 19.8C105.5 19.7 106.9 19.7 108.3 19.7C109.7 19.7 111.1 19.7 112.5 19.8C113.1 19.8 113.7 19.9 114.2 19.9C115 20 115.8 20 116.6 20.1C117.3 20.2 118.1 20.3 118.8 20.3C119.4 20.4 120 20.4 120.6 20.5C121.4 20.6 122.3 20.7 123.1 20.9C123.5 21 124 21.1 124.4 21.1C125.3 21.3 126.2 21.5 127.2 21.7C127.5 21.8 127.8 21.8 128.1 21.9C129.1 22.1 130.1 22.4 131.2 22.7C131.3 22.7 131.3 22.7 131.4 22.8C134.7 23.7 137.9 24.8 141.1 26.1C141.5 26.3 141.9 26.4 142.2 26.5C142.8 26.8 143.4 27 144 27.3C144.7 27.6 145.4 27.9 146.1 28.2C146.5 28.4 147 28.6 147.4 28.8C148.3 29.2 149.2 29.7 150 30.1C150.3 30.2 150.5 30.4 150.8 30.5C151.9 31.1 152.9 31.7 153.9 32.3C154 32.4 154.1 32.4 154.2 32.5C172.3 43.6 186.2 60.9 192.6 81.5C192.6 81.6 192.7 81.8 192.7 81.9C193.1 83.1 193.4 84.4 193.8 85.6C193.8 85.7 193.9 85.9 193.9 86C194.6 88.7 195.2 91.5 195.6 94.3C195.6 94.6 195.7 94.9 195.7 95.2C195.9 96.3 196 97.3 196.1 98.4C196.1 98.8 196.2 99.2 196.2 99.7C196.3 100.7 196.4 101.7 196.4 102.7C196.4 103.1 196.5 103.5 196.5 103.9C196.6 105.3 196.6 106.7 196.6 108.1C196.6 109.5 196.6 110.9 196.5 112.3C196.5 112.7 196.5 113.1 196.4 113.5C196.3 114.5 196.3 115.5 196.2 116.5C196.2 116.9 196.1 117.4 196.1 117.8C196 118.9 195.8 119.9 195.7 121C195.7 121.3 195.6 121.6 195.6 121.9C195.2 124.7 194.6 127.4 193.9 130.2C193.9 130.3 193.8 130.5 193.8 130.6C193.5 131.8 193.1 133.1 192.8 134.3C192.8 134.4 192.7 134.6 192.7 134.7C192.5 135.2 192.3 135.8 192.2 136.3H194.2C194.3 136.1 194.3 135.8 194.4 135.6C194.5 135.2 194.6 134.9 194.7 134.5C194.9 133.9 195.1 133.3 195.2 132.6C195.4 131.9 195.6 131.2 195.8 130.5C195.9 130 196 129.6 196.1 129.1C196.3 128.4 196.4 127.7 196.6 127C196.7 126.5 196.8 126.1 196.9 125.6C197 124.8 197.2 124.1 197.3 123.3C197.4 123 197.4 122.6 197.5 122.3C197.7 121.3 197.8 120.4 197.9 119.4C197.9 119.1 198 118.9 198 118.6C198.1 117.7 198.2 116.8 198.3 115.9C198.3 115.7 198.3 115.5 198.4 115.3C198.5 114.3 198.5 113.2 198.6 112.2C198.6 112 198.6 111.7 198.6 111.5C198.6 110.4 198.7 109.3 198.7 108.2C198.7 107.1 198.7 106 198.6 104.9C198.6 104.6 198.6 104.4 198.6 104.2C198.6 103.2 198.5 102.1 198.4 101.1C198.4 100.9 198.4 100.7 198.3 100.5C198.2 99.6 198.1 98.7 198 97.8C198 97.5 197.9 97.3 197.9 97C197.8 96 197.6 95.1 197.5 94.1C197.4 93.7 197.4 93.4 197.3 93C197.2 92.3 197 91.5 196.9 90.8C196.8 90.3 196.7 89.8 196.6 89.3C196.5 88.6 196.3 88 196.1 87.3C196 86.8 195.9 86.4 195.8 85.9C195.6 85.2 195.4 84.6 195.3 83.9C195.1 83.2 194.9 82.6 194.7 81.9C194.6 81.6 194.5 81.2 194.4 80.9C194.3 80.5 194.1 80 194 79.6C188.7 63.7 179 49.7 166.4 39.1C162.9 36.2 159.2 33.5 155.4 31.2C155.2 31.1 155.1 31 154.9 30.9C154.1 30.4 153.2 29.9 152.4 29.4C151.9 29.1 151.3 28.8 150.8 28.5C150.4 28.3 150.1 28.1 149.7 27.9C148.8 27.4 147.8 26.9 146.8 26.5C146.6 26.4 146.5 26.3 146.3 26.3C137.1 22 127 19.2 116.4 18.3C116.3 18.3 116.3 18.3 116.2 18.3C115 18.2 113.7 18.1 112.5 18.1C112.4 18.1 112.2 18.1 112.1 18.1C110.9 18.1 109.7 18 108.4 18C107.1 18 105.9 18 104.7 18.1C104.6 18.1 104.4 18.1 104.3 18.1C103.1 18.2 101.8 18.2 100.6 18.3C100.5 18.3 100.5 18.3 100.4 18.3C89.8 19.2 79.7 22 70.5 26.3C70.3 26.4 70.2 26.5 70 26.5C69 27 68.1 27.4 67.1 27.9C66.7 28.1 66.4 28.3 66 28.5C65.5 28.8 64.9 29.1 64.4 29.4C63.6 29.9 62.7 30.4 61.9 30.9C61.7 31 61.6 31.1 61.4 31.2C57.5 33.5 53.8 36.2 50.4 39.1C37.6 49.7 28 63.7 22.6 79.6Z" fill="#1C355D"/>
<path d="M177.6 155.5C168.7 155.5 161.4 162.7 161.3 171.6H159.3C159.1 162.7 151.9 155.5 143 155.5C134.1 155.5 126.8 162.7 126.7 171.6H124.7C124.5 162.7 117.3 155.5 108.4 155.5C99.5 155.5 92.2 162.7 92.1 171.6H90.1C89.9 162.7 82.7 155.5 73.8 155.5C64.9 155.5 57.6 162.7 57.5 171.6H55.5C55.3 162.7 48.1 155.5 39.2 155.5C30.5 155.5 23.4 162.4 22.9 171C23.5 171.8 24.1 172.6 24.7 173.4V171.9C24.7 163.9 31.2 157.4 39.2 157.4C47.1 157.4 53.5 163.7 53.7 171.6H52V173.5H53.7V177.6C52 176.3 50.4 174.9 48.9 173.5H46.1C47.5 174.9 49 176.2 50.5 177.5C54 180.4 57.7 183.1 61.5 185.4C61.7 185.5 61.8 185.6 62 185.7C62.8 186.2 63.7 186.7 64.5 187.2C65 187.5 65.6 187.8 66.1 188.1C66.5 188.3 66.8 188.5 67.2 188.7C68.1 189.2 69.1 189.7 70.1 190.1C70.3 190.2 70.4 190.3 70.6 190.3C79.8 194.6 89.9 197.4 100.5 198.3C100.6 198.3 100.6 198.3 100.7 198.3C101.9 198.4 103.2 198.5 104.4 198.5C104.5 198.5 104.7 198.5 104.8 198.5C106 198.5 107.2 198.6 108.5 198.6C109.8 198.6 111 198.6 112.2 198.5C112.3 198.5 112.5 198.5 112.6 198.5C113.8 198.4 115.1 198.4 116.3 198.3C116.4 198.3 116.4 198.3 116.5 198.3C127.1 197.4 137.2 194.6 146.4 190.3C146.6 190.2 146.7 190.1 146.9 190.1C147.9 189.6 148.8 189.2 149.8 188.7C150.2 188.5 150.5 188.3 150.9 188.1C151.4 187.8 152 187.5 152.5 187.2C153.3 186.7 154.2 186.2 155 185.7C155.2 185.6 155.3 185.5 155.5 185.4C159.4 183.1 163 180.4 166.5 177.5C168 176.2 169.5 174.9 170.9 173.5H168.1C166.5 174.9 164.9 176.3 163.3 177.6V173.5H165V171.6H163.3C163.5 163.8 169.9 157.4 177.8 157.4C185.8 157.4 192.3 163.9 192.3 171.9V173.4C192.9 172.6 193.5 171.8 194.1 171C193.4 162.4 186.3 155.5 177.6 155.5ZM57.2 180.4C56.6 179.9 55.9 179.5 55.3 179V173.4H57.2V180.4ZM88.1 194.3C87.2 194.1 86.3 193.9 85.4 193.6C85.3 193.6 85.3 193.6 85.2 193.5C81.9 192.6 78.6 191.5 75.5 190.2C75.1 190 74.7 189.9 74.4 189.8C73.8 189.5 73.2 189.3 72.6 189C71.9 188.7 71.2 188.4 70.5 188.1C70.1 187.9 69.6 187.7 69.2 187.5C68.3 187.1 67.5 186.6 66.6 186.2C66.3 186.1 66.1 185.9 65.8 185.8C64.7 185.2 63.7 184.6 62.7 184C62.6 183.9 62.5 183.9 62.4 183.8C61.3 183.1 60.2 182.4 59.1 181.7H59.2V173.5H60.9V171.6H59.2C59.4 163.8 65.8 157.4 73.7 157.4C81.6 157.4 88 163.7 88.2 171.6H86.5V173.5H88.2V194.3H88.1ZM91.9 195.1C91.3 195 90.6 194.8 90 194.7V173.4H91.9V195.1ZM122.7 195.5C122 195.6 121.2 195.7 120.5 195.8C119.9 195.9 119.3 196 118.7 196C118 196.1 117.2 196.2 116.5 196.2C115.7 196.3 114.9 196.3 114.1 196.4C113.5 196.4 112.9 196.5 112.4 196.5C111 196.6 109.6 196.6 108.2 196.6C106.8 196.6 105.4 196.6 104 196.5C103.4 196.5 102.8 196.4 102.3 196.4C101.5 196.3 100.7 196.3 99.9 196.2C99.2 196.1 98.4 196 97.7 196C97.1 195.9 96.5 195.9 95.9 195.8C95.2 195.7 94.4 195.6 93.7 195.5V173.5H95.4V171.6H93.7C93.9 163.8 100.3 157.4 108.2 157.4C116.1 157.4 122.5 163.7 122.7 171.6H121V173.5H122.7V195.5V195.5ZM126.6 194.7C126 194.8 125.3 195 124.7 195.1V173.4H126.6V194.7ZM154.2 183.8C154.1 183.9 154 183.9 153.9 184C152.9 184.6 151.8 185.2 150.8 185.8C150.5 185.9 150.3 186.1 150 186.2C149.1 186.7 148.3 187.1 147.4 187.5C147 187.7 146.5 187.9 146.1 188.1C145.4 188.4 144.7 188.7 144 189C143.4 189.3 142.8 189.6 142.2 189.8C141.8 190 141.4 190.1 141.1 190.2C137.9 191.5 134.7 192.6 131.4 193.5C131.3 193.5 131.3 193.5 131.2 193.6C130.3 193.8 129.4 194.1 128.5 194.3V173.4H130.2V171.5H128.5C128.7 163.7 135.1 157.3 143 157.3C150.9 157.3 157.3 163.6 157.5 171.5H155.8V173.4H157.5V181.6H157.6C156.4 182.4 155.3 183.1 154.2 183.8ZM161.2 179C160.6 179.5 159.9 179.9 159.3 180.4V173.4H161.2V179Z" fill="#1C355D"/>
<path d="M123.8 41H115.5C115.6 41.3 115.6 41.7 115.6 42C115.6 42 115.6 42 115.6 42.1C115.6 42.4 115.6 42.6 115.5 42.9H123.7V41H123.8Z" fill="#1C355D"/>
<path d="M108.3 49.3002H108.2H108.1C108.1 49.3002 108.1 49.3002 108 49.3002C107.7 49.3002 107.5 49.3002 107.2 49.2002V57.4002H108.2H109.2V49.2002C108.9 49.3002 108.7 49.3002 108.3 49.3002C108.4 49.3002 108.4 49.3002 108.3 49.3002Z" fill="#1C355D"/>
<path d="M108.1 34.6999H108.2H108.3C108.6 34.6999 108.9 34.6999 109.1 34.7999V26.3999H108.1H107.1V34.7999C107.6 34.6999 107.8 34.6999 108.1 34.6999Z" fill="#1C355D"/>
<path d="M114.3 46.1999C114.2 46.2999 114.2 46.3999 114.1 46.4999C113.9 46.6999 113.8 46.8999 113.6 47.0999L118.1 50.4999V47.8999L114.8 45.3999C114.6 45.6999 114.5 45.9999 114.3 46.1999Z" fill="#1C355D"/>
<path d="M113.9 37.3002C114 37.4002 114.1 37.5002 114.2 37.7002C114.4 37.9002 114.5 38.2002 114.7 38.4002L118.1 35.8002V33.2002L113.4 36.7002C113.6 37.0002 113.7 37.1002 113.9 37.3002Z" fill="#1C355D"/>
<path d="M106.7 36.8001C106.5 36.9001 106.3 36.9001 106.1 37.0001C105.9 37.1001 105.8 37.1001 105.6 37.2001C105.5 37.3001 105.3 37.3001 105.2 37.4001C105 37.5001 104.9 37.6001 104.7 37.7001C104.6 37.8001 104.5 37.8001 104.5 37.9001L104.4 38.0001C104.2 38.2001 104.1 38.3001 103.9 38.5001C103.8 38.6001 103.7 38.7001 103.7 38.8001C103.6 39.0001 103.4 39.2001 103.3 39.4001C103.3 39.5001 103.2 39.5001 103.2 39.6001C103.2 39.7001 103.1 39.7001 103.1 39.8001C103.1 39.9001 103 40.0001 103 40.1001C102.9 40.4001 102.8 40.6001 102.8 40.9001C102.8 41.0001 102.8 41.1001 102.8 41.1001C102.7 41.4001 102.7 41.7001 102.7 42.0001C102.7 42.3001 102.7 42.6001 102.8 42.9001C102.8 43.0001 102.8 43.0001 102.8 43.1001C102.9 43.4001 102.9 43.6001 103.1 43.9001C103.1 44.0001 103.2 44.1001 103.2 44.1001C103.2 44.2001 103.3 44.2001 103.3 44.3001C103.4 44.5001 103.5 44.8001 103.7 45.0001C103.7 45.1001 103.8 45.1001 103.9 45.2001C104.1 45.4001 104.2 45.6001 104.4 45.8001C104.5 45.9001 104.5 45.9001 104.6 46.0001C104.8 46.2001 105 46.3001 105.2 46.4001C105.3 46.5001 105.4 46.5001 105.5 46.6001C105.7 46.7001 105.9 46.8001 106.1 46.9001C106.2 47.0001 106.4 47.0001 106.6 47.0001C106.8 47.1001 106.9 47.1001 107.1 47.2001C107.4 47.3001 107.8 47.3001 108.1 47.3001C108.1 47.3001 108.1 47.3001 108.2 47.3001H108.3H108.4C108.4 47.3001 108.4 47.3001 108.5 47.3001C108.8 47.3001 109.2 47.3001 109.5 47.2001C109.7 47.2001 109.9 47.1001 110 47.0001C110.2 47.0001 110.3 46.9001 110.5 46.9001C110.7 46.8001 110.9 46.7001 111.1 46.6001C111.2 46.5001 111.3 46.5001 111.4 46.4001C111.6 46.3001 111.8 46.1001 112 46.0001C112.1 45.9001 112.1 45.9001 112.2 45.8001C112.4 45.6001 112.6 45.4001 112.7 45.2001C112.8 45.1001 112.8 45.1001 112.9 45.0001C113.1 44.8001 113.2 44.5001 113.3 44.3001C113.3 44.2001 113.4 44.2001 113.4 44.1001C113.4 44.0001 113.5 43.9001 113.5 43.9001C113.6 43.6001 113.7 43.4001 113.8 43.1001C113.8 43.0001 113.8 43.0001 113.8 42.9001C113.9 42.6001 113.9 42.3001 113.9 42.0001C113.9 41.7001 113.9 41.4001 113.8 41.1001C113.8 41.0001 113.8 40.9001 113.8 40.9001C113.7 40.6001 113.7 40.4001 113.6 40.1001C113.6 40.0001 113.5 39.9001 113.5 39.8001C113.5 39.7001 113.5 39.7001 113.4 39.6001C113.4 39.5001 113.3 39.5001 113.3 39.4001C113.2 39.2001 113.1 39.0001 112.9 38.8001C112.8 38.7001 112.7 38.6001 112.7 38.5001C112.6 38.3001 112.4 38.2001 112.2 38.0001L112.1 37.9001C112 37.8001 111.9 37.8001 111.9 37.7001C111.8 37.6001 111.6 37.5001 111.4 37.4001C111.3 37.3001 111.1 37.2001 111 37.2001C110.8 37.1001 110.7 37.0001 110.5 37.0001C110.3 36.9001 110.1 36.9001 109.9 36.8001C109.8 36.8001 109.6 36.7001 109.5 36.7001C109.2 36.6001 108.8 36.6001 108.5 36.6001H108.4H108.3C107.9 36.6001 107.6 36.6001 107.3 36.7001C107 36.7001 106.8 36.8001 106.7 36.8001ZM108.1 38.3001H108.2H108.3C109.1 38.3001 109.8 38.6001 110.4 39.0001C111 39.4001 111.4 40.0001 111.7 40.6001C111.9 41.0001 112 41.5001 112 42.0001C112 42.4001 111.9 42.8001 111.8 43.1001C111.6 43.8001 111.2 44.4001 110.6 44.8001C110 45.3001 109.2 45.6001 108.3 45.6001H108.2H108.1C107.2 45.6001 106.4 45.3001 105.8 44.8001C105.3 44.4001 104.8 43.8001 104.6 43.1001C104.5 42.7001 104.4 42.4001 104.4 42.0001C104.4 41.5001 104.5 41.1001 104.7 40.6001C105 39.9001 105.4 39.4001 106 39.0001C106.6 38.6001 107.3 38.3001 108.1 38.3001Z" fill="#1C355D"/>
<path d="M182.8 146.4V131.4V129.2V129.1L162.5 113.6C162.3 113.5 162.1 113.4 161.9 113.4C161.7 113.4 161.5 113.4 161.3 113.6L143 127.6V129.9L161.9 115.5L181 130V146.4H182.8Z" fill="#1C355D"/>
<path d="M142.3 54.6L133.2 47.6C132.8 47.3 132.3 47.3 131.9 47.6L122.7 54.6V57.2L132.5 49.7L142.3 57.2V54.6Z" fill="#1C355D"/>
<path d="M8.79996 129.3C8.59996 129.1 8.39996 128.9 8.09996 128.8C7.79996 128.7 7.49995 128.7 7.19995 128.8C6.89995 128.9 6.69995 129 6.39995 129.2C6.19995 129.4 5.99995 129.6 5.89995 129.9C5.79995 130.2 5.79995 130.5 5.89995 130.7C5.99995 131 6.09996 131.2 6.29996 131.5C6.49996 131.7 6.69996 131.9 6.99996 132C7.29996 132.1 7.59995 132.1 7.89995 132C8.19995 131.9 8.39995 131.8 8.69995 131.6C8.89995 131.4 9.09995 131.2 9.19995 130.9C9.29995 130.6 9.29995 130.3 9.19995 130C9.19995 129.7 8.99996 129.5 8.79996 129.3Z" fill="#1C355D"/>
<path d="M7.8 118.2C8.2 117.9 8.6 117.5 8.8 117C9 116.5 9.10001 115.9 9.10001 115.3C9.10001 114.7 8.90001 114.1 8.60001 113.6C8.30001 113.1 7.9 112.8 7.5 112.5C7 112.3 6.49999 112.2 5.89999 112.2L0.199997 112.6C0.0999969 112.6 0 112.7 0 112.8L0.100006 114.2C0.100006 114.3 0.200003 114.4 0.300003 114.4L6 114C6.4 114 6.80001 114.1 7.10001 114.3C7.40001 114.6 7.60001 114.9 7.60001 115.3C7.60001 115.7 7.5 116.1 7.3 116.4C7 116.7 6.7 116.9 6.2 116.9L0.5 117.3C0.4 117.3 0.300003 117.4 0.300003 117.5L0.399994 118.9C0.399994 119 0.500006 119.1 0.600006 119.1L6.3 118.7C6.9 118.7 7.4 118.5 7.8 118.2Z" fill="#1C355D"/>
<path d="M8.5 107.6C8.6 107.6 8.7 107.5 8.7 107.4L8.8 106.1C8.8 106 8.70001 105.9 8.60001 105.9L3.39999 105.7H3.3C3.3 105.7 3.3 105.7 3.3 105.6L8.7 102.6C8.8 102.5 8.89999 102.5 8.89999 102.4L9 101.1C9 101 8.9 100.9 8.8 100.9L0.399994 100.5C0.299994 100.5 0.199997 100.6 0.199997 100.7L0.100006 102C0.100006 102.1 0.200003 102.2 0.300003 102.2L5.5 102.4H5.60001C5.60001 102.4 5.60001 102.4 5.60001 102.5L0.199997 105.4C0.0999969 105.5 0.100006 105.5 0.100006 105.6L0 106.9C0 107 0.0999969 107.1 0.199997 107.1L8.5 107.6Z" fill="#1C355D"/>
<path d="M9.49995 94.4999L1.09996 93.3999C0.99996 93.3999 0.899948 93.3999 0.899948 93.5999L0.699951 94.8999C0.699951 94.9999 0.699948 95.0999 0.899948 95.0999L9.19995 96.1999C9.29995 96.1999 9.39995 96.1999 9.39995 95.9999L9.59996 94.6999C9.69996 94.5999 9.59995 94.4999 9.49995 94.4999Z" fill="#1C355D"/>
<path d="M1.79997 88.6001L10.7 87.9001C10.8 87.9001 10.9 87.8001 10.9 87.7001L11.2 86.3001C11.2 86.2001 11.2 86.1001 11.1 86.0001L3.39996 81.6001C3.29996 81.6001 3.29997 81.6001 3.19997 81.6001C3.09997 81.6001 3.09998 81.7001 3.09998 81.7001L2.79997 83.1001C2.79997 83.2001 2.79996 83.3001 2.89996 83.4001L8.49997 86.3001C8.49997 86.3001 8.49997 86.3001 8.49997 86.4001C8.49997 86.4001 8.49996 86.4001 8.39996 86.4001L2.09998 86.7001C1.99998 86.7001 1.89996 86.8001 1.89996 86.9001L1.59998 88.3001C1.59998 88.5001 1.69997 88.6001 1.79997 88.6001Z" fill="#1C355D"/>
<path d="M12.7 79.6001C12.8 79.6001 12.9 79.6001 13 79.5001L14.8 74.1001C14.8 74.0001 14.8 73.9001 14.7 73.8001L13.7 73.5001C13.6 73.5001 13.5 73.5001 13.4 73.6001L12.1 77.5001C12.1 77.5001 12.1 77.6001 12 77.5001L10.1 76.9001C10.1 76.9001 10 76.9001 10.1 76.8001L10.9 74.3001C10.9 74.2001 10.9 74.1001 10.8 74.0001L9.80003 73.7001C9.70003 73.7001 9.60003 73.7001 9.50003 73.8001L8.70003 76.3001C8.70003 76.3001 8.70004 76.4001 8.60004 76.3001L6.80003 75.7001C6.80003 75.7001 6.70003 75.7001 6.80003 75.6001L8.10004 71.7001C8.10004 71.6001 8.10003 71.5001 8.00003 71.4001L7.00003 71.1001C6.90003 71.1001 6.80003 71.1001 6.70003 71.2001L4.90002 76.6001C4.90002 76.7001 4.90003 76.8001 5.00003 76.9001L12.7 79.6001Z" fill="#1C355D"/>
<path d="M16.1999 69.8002C16.2999 69.9002 16.3999 69.8002 16.4999 69.7002L17.1 68.5002C17.2 68.4002 17.0999 68.3002 16.9999 68.2002L13.8999 66.8002C13.8999 66.8002 13.7999 66.7002 13.8999 66.7002L14.3999 65.7002C14.3999 65.7002 14.3999 65.6002 14.4999 65.6002H18.2999C18.3999 65.6002 18.5 65.5002 18.6 65.4002L19.1999 64.1002C19.1999 64.0002 19.1999 64.0002 19.1999 64.0002C19.1999 64.0002 19.2 63.9002 19.1 63.9002H18.9999L15.1 64.0002C15.1 64.0002 15.0999 64.0002 14.9999 64.0002C14.9999 64.0002 14.9999 64.0002 14.9999 63.9002C15.0999 63.4002 14.9999 62.9002 14.6999 62.5002C14.3999 62.1002 14.0999 61.7002 13.4999 61.5002C12.9999 61.3002 12.6 61.2002 12.1 61.2002C11.6 61.2002 11.1999 61.4002 10.7999 61.7002C10.3999 62.0002 10.0999 62.4002 9.89994 62.9002L8.39994 66.1002C8.29994 66.2002 8.39995 66.3002 8.49995 66.4002L16.1999 69.8002ZM11.1999 63.7002C11.2999 63.4002 11.5999 63.2002 11.8999 63.0002C12.1999 62.9002 12.4999 62.9002 12.7999 63.0002C13.0999 63.1002 13.2999 63.4002 13.3999 63.6002C13.4999 63.9002 13.4999 64.2002 13.2999 64.5002L12.6 66.0002C12.6 66.0002 12.4999 66.1002 12.4999 66.0002L10.6 65.1002C10.6 65.1002 10.5 65.0002 10.6 65.0002L11.1999 63.7002Z" fill="#1C355D"/>
<path d="M15.4 57.1998C15.8 57.4998 16.3 57.5998 16.7 57.4998C17.1 57.3998 17.5 57.2998 17.9 57.0998C18.3 56.8998 18.7001 56.5998 19.1001 56.1998C19.5001 55.8998 19.8 55.5998 20 55.4998C20.2 55.3998 20.4001 55.2998 20.6001 55.1998C20.8001 55.1998 21.0001 55.1998 21.1001 55.2998C21.3001 55.3998 21.5 55.6998 21.5 55.8998C21.6 56.1998 21.5 56.4998 21.2 56.8998C20.9 57.2998 20.6 57.5998 20.3 57.7998C19.9 57.8998 19.6 57.8998 19.3 57.7998L19.1001 57.6998C19.0001 57.5998 18.9 57.6998 18.8 57.7998L18.1001 58.8998C18.0001 58.9998 18.1 59.0998 18.2 59.1998L18.4 59.2998C18.9 59.5998 19.3 59.6998 19.8 59.6998C20.3 59.6998 20.7 59.4998 21.2 59.1998C21.6 58.8998 22 58.3998 22.4 57.8998C22.7 57.2998 22.9 56.7998 23 56.2998C23.1 55.7998 23 55.2998 22.8 54.8998C22.6 54.4998 22.3 54.0998 21.8 53.8998C21.3 53.5998 20.9 53.4998 20.5 53.5998C20.1 53.6998 19.7 53.7998 19.4 53.9998C19.1 54.1998 18.7 54.4998 18.2 54.8998C17.8 55.2998 17.4 55.4998 17.2 55.6998C17 55.8998 16.8001 55.9998 16.6001 55.9998C16.4001 55.9998 16.2 55.9998 16 55.8998C15.7 55.6998 15.6001 55.4998 15.6001 55.2998C15.6001 54.9998 15.7 54.6998 15.9 54.3998C16.2 53.9998 16.5 53.6998 16.8 53.5998C17.2 53.4998 17.5 53.4998 17.8 53.6998L17.9 53.7998C18 53.7998 18.0001 53.7998 18.1001 53.6998L18.8 52.5998C18.9 52.4998 18.8 52.3998 18.7 52.2998L18.6001 52.1998C18.1001 51.8998 17.7 51.7998 17.2 51.7998C16.7 51.7998 16.2 51.9998 15.8 52.2998C15.3 52.5998 15.0001 53.0998 14.6001 53.5998C14.3001 54.0998 14.1 54.5998 14 55.0998C13.9 55.5998 14 56.0998 14.2 56.4998C14.7 56.5998 15 56.8998 15.4 57.1998Z" fill="#1C355D"/>
<path d="M26.5 51.3002C26.6 51.4002 26.7 51.4002 26.8 51.2002L27.6 50.1002C27.7 50.0002 27.7 49.9002 27.6 49.8002L20.7 44.9002C20.6 44.8002 20.5 44.8002 20.4 44.9002L19.6 46.0002C19.5 46.1002 19.5 46.2002 19.7 46.3002L26.5 51.3002Z" fill="#1C355D"/>
<path d="M24.4 41.7999C24.5 41.8999 24.6 41.8999 24.7 41.7999L26.1 40.1999H26.2L31.6 44.6999C31.7 44.7999 31.8 44.7999 31.9 44.6999L32.8 43.6999C32.9 43.5999 32.9 43.4999 32.8 43.3999L27.4 38.8999V38.7999L28.8 37.0999C28.9 36.9999 28.9 36.8999 28.8 36.7999L28 36.0999C27.9 35.9999 27.8 35.9999 27.7 36.0999L23.7 40.8999C23.6 40.9999 23.6 41.0999 23.7 41.1999L24.4 41.7999Z" fill="#1C355D"/>
<path d="M36.3 39.3002C36.3 39.4002 36.4 39.4002 36.4 39.4002C36.5 39.4002 36.5001 39.4002 36.6001 39.3002L37.7 38.3002C37.8 38.2002 37.8 38.1002 37.8 38.0002L37.2 36.9002V36.8002L39.4 34.7002H39.5L40.6001 35.3002C40.7001 35.4002 40.8 35.3002 40.9 35.3002L42 34.3002L42.1001 34.2002V34.1002C42.1001 34.1002 42.1 34.1002 42 34.1002L34 29.7002C33.9 29.6002 33.8 29.7002 33.7 29.7002L32.4 31.0002C32.3 31.1002 32.3 31.2002 32.3 31.3002L36.3 39.3002ZM34.5 31.9002L38.1001 33.9002C38.1001 33.9002 38.2001 34.0002 38.1001 34.0002L36.5 35.6002H36.4L34.5 31.9002Z" fill="#1C355D"/>
<path d="M41.7 27.6C42.1 27.7 42.6 27.7 43 27.6C43.4 27.5 43.9 27.4 44.5 27.2C45 27 45.4 26.9 45.6 26.9C45.8 26.8 46.1 26.8 46.3 26.9C46.5 26.9 46.7 27 46.8 27.2C47 27.4 47 27.7 47 28C46.9 28.3 46.7 28.6 46.4 28.8C46 29.1 45.6 29.3 45.2 29.3C44.8 29.3 44.5 29.2 44.3 28.9L44.2 28.8C44.1 28.7 44 28.7 43.9 28.8L42.9 29.6C42.8 29.7 42.8 29.8 42.9 29.9L43 30.1C43.3 30.5 43.7 30.8 44.2 30.9C44.7 31 45.1 31.1 45.7 30.9C46.2 30.8 46.8 30.5 47.3 30.1C47.8 29.7 48.2 29.3 48.5 28.8C48.8 28.3 48.9 27.9 48.8 27.4C48.8 26.9 48.6 26.5 48.3 26.1C48 25.7 47.6 25.4 47.2 25.3C46.8 25.2 46.4 25.2 46 25.3C45.6 25.4 45.1 25.5 44.5 25.7C44 25.9 43.6 26 43.3 26.1C43 26.2 42.8 26.2 42.6 26.1C42.4 26.1 42.3 26 42.1 25.8C41.9 25.6 41.9 25.3 41.9 25.1C42 24.8 42.2 24.6 42.5 24.3C42.9 24 43.3 23.8 43.7 23.9C44.1 23.9 44.4 24.1 44.6 24.3L44.7 24.4C44.8 24.5 44.8 24.5 44.9 24.4L45.9 23.6C46 23.5 46 23.4 45.9 23.3L45.8 23.2C45.5 22.8 45.1 22.5 44.6 22.3C44.1 22.2 43.6 22.1 43.1 22.3C42.6 22.4 42 22.7 41.5 23.1C41 23.5 40.7 23.9 40.4 24.3C40.2 24.7 40 25.2 40.1 25.7C40.1 26.2 40.3 26.6 40.6 27C40.9 27.3 41.2 27.5 41.7 27.6Z" fill="#1C355D"/>
<path d="M60.6 15.1999C61 15.3999 61.4 15.4999 61.8 15.4999C62.2 15.4999 62.8 15.4999 63.4 15.3999C63.9 15.2999 64.3 15.2999 64.6 15.2999C64.9 15.2999 65.1 15.2999 65.2 15.3999C65.3 15.4999 65.5 15.5999 65.6 15.7999C65.7 15.9999 65.7 16.2999 65.6 16.5999C65.5 16.8999 65.2 17.0999 64.8 17.2999C64.4 17.4999 63.9 17.5999 63.6 17.4999C63.2 17.3999 63 17.1999 62.8 16.8999L62.7 16.6999C62.7 16.5999 62.6 16.5999 62.4 16.5999L61.2 17.1999C61.1 17.2999 61 17.3999 61.1 17.4999L61.2 17.6999C61.4 18.1999 61.8 18.4999 62.2 18.7999C62.6 18.9999 63.1 19.1999 63.6 19.0999C64.1 19.0999 64.7 18.8999 65.3 18.5999C65.9 18.2999 66.4 17.9999 66.7 17.5999C67 17.1999 67.3 16.7999 67.3 16.2999C67.4 15.7999 67.3 15.3999 67.1 14.8999C66.9 14.3999 66.6 14.0999 66.2 13.8999C65.8 13.6999 65.4 13.5999 65 13.5999C64.6 13.5999 64.1 13.5999 63.5 13.6999C62.9 13.7999 62.5 13.7999 62.2 13.7999C61.9 13.7999 61.7 13.7999 61.5 13.6999C61.3 13.5999 61.2 13.4999 61.1 13.2999C61 12.9999 61 12.7999 61.1 12.4999C61.2 12.2999 61.5 11.9999 61.8 11.8999C62.3 11.6999 62.7 11.5999 63 11.6999C63.4 11.7999 63.6 11.9999 63.8 12.2999L63.9 12.3999C63.9 12.4999 64 12.4999 64.1 12.3999L65.3 11.7999C65.4 11.6999 65.5 11.5999 65.4 11.4999L65.3 11.3999C65.1 10.8999 64.7 10.4999 64.3 10.2999C63.9 10.0999 63.4 9.8999 62.8 9.8999C62.2 9.8999 61.7 10.0999 61.1 10.2999C60.6 10.5999 60.1 10.8999 59.8 11.2999C59.5 11.6999 59.3 12.0999 59.2 12.5999C59.1 13.0999 59.2 13.4999 59.4 13.9999C59.9 14.6999 60.2 14.9999 60.6 15.1999Z" fill="#1C355D"/>
<path d="M69.2 8.70011C69.2 8.80011 69.3 8.90012 69.5 8.80012L71.5 8.10011H71.6L74 14.7001C74 14.8001 74.1 14.9001 74.3 14.8001L75.6 14.3001C75.7 14.3001 75.8 14.2001 75.7 14.0001L73.3 7.40011V7.30012L75.4 6.60011C75.5 6.60011 75.6 6.50012 75.5 6.30012L75.1 5.30012C75.1 5.20012 75 5.10011 74.8 5.20011L68.9 7.30012C68.8 7.30012 68.7 7.40011 68.8 7.60011L69.2 8.70011Z" fill="#1C355D"/>
<path d="M81.9 10.9999C82.3 11.3999 82.7 11.5999 83.3 11.7999C83.8 11.8999 84.4 11.8999 85.1 11.7999C85.7 11.5999 86.3 11.3999 86.7 10.9999C87.1 10.5999 87.4 10.1999 87.6 9.69991C87.8 9.19991 87.8 8.5999 87.6 8.0999L86.3 2.5999C86.3 2.4999 86.2 2.3999 86 2.3999L84.7 2.69991C84.6 2.69991 84.5 2.79991 84.5 2.99991L85.8 8.5999C85.9 8.9999 85.9 9.39991 85.7 9.69991C85.5 9.99991 85.2 10.1999 84.7 10.3999C84.3 10.4999 83.9 10.4999 83.6 10.2999C83.3 10.0999 83.1 9.79991 83 9.29991L81.7 3.69991C81.7 3.59991 81.6 3.49991 81.4 3.49991L80.1 3.79991C80 3.79991 79.9 3.8999 79.9 4.0999L81.2 9.5999C81.3 10.1999 81.6 10.5999 81.9 10.9999Z" fill="#1C355D"/>
<path d="M92.7 10.0998L95.8 9.69977C96.4 9.59977 97 9.39977 97.4 9.19977C97.8 8.89977 98.2 8.59976 98.4 8.09976C98.6 7.69976 98.7 7.19977 98.6 6.69977L98.2 3.19977C98.1 2.69977 97.9 2.19976 97.6 1.89976C97.3 1.49976 96.9 1.29976 96.4 1.09976C95.9 0.899762 95.3 0.899771 94.7 0.999771L91.6 1.39976C91.5 1.39976 91.4 1.49976 91.4 1.59976L92.4 9.99977C92.5 10.0998 92.6 10.0998 92.7 10.0998ZM93.5 2.59976L95 2.39976C95.4 2.39976 95.7 2.39977 96 2.69977C96.3 2.89977 96.4 3.29977 96.5 3.69977L96.9 6.59976C96.9 6.99976 96.9 7.39977 96.7 7.69977C96.5 7.99977 96.2 8.19977 95.8 8.19977L94.3 8.39976C94.2 8.39976 94.2 8.39977 94.2 8.29977L93.5 2.59976C93.4 2.59976 93.4 2.69976 93.5 2.59976Z" fill="#1C355D"/>
<path d="M103.5 9.10019L104.9 9.0002C105 9.0002 105.1 8.9002 105.1 8.8002L104.8 0.400192C104.8 0.300192 104.7 0.200195 104.6 0.200195L103.2 0.300201C103.1 0.300201 103 0.400198 103 0.500198L103.3 8.90019C103.3 9.00019 103.4 9.10019 103.5 9.10019Z" fill="#1C355D"/>
<path d="M111 8.7C111.5 9 112.1 9.2 112.7 9.2C113.4 9.2 114 9.09999 114.5 8.89999C115 8.69999 115.4 8.3 115.7 7.8C116 7.3 116.2 6.79999 116.2 6.09999L116.3 3.39999C116.3 2.79999 116.2 2.2 116 1.7C115.7 1.2 115.4 0.8 114.9 0.5C114.4 0.2 113.8 0.1 113.2 0C112.5 0 112 0.100003 111.4 0.300003C110.9 0.500003 110.5 0.899994 110.2 1.39999C109.9 1.89999 109.7 2.4 109.7 3L109.6 5.7C109.6 6.3 109.7 6.89999 109.9 7.39999C110.2 7.99999 110.5 8.4 111 8.7ZM111.5 3.2C111.5 2.7 111.7 2.3 112 2C112.3 1.7 112.7 1.59999 113.1 1.59999C113.6 1.59999 113.9 1.79999 114.2 2.09999C114.5 2.39999 114.6 2.8 114.6 3.3L114.5 6.09999C114.5 6.59999 114.3 7 114 7.3C113.7 7.6 113.3 7.7 112.9 7.7C112.4 7.7 112.1 7.5 111.8 7.2C111.5 6.9 111.4 6.5 111.4 6L111.5 3.2Z" fill="#1C355D"/>
<path d="M120.6 9.7L121.9 9.89999C122 9.89999 122.1 9.9 122.1 9.7L122.6 6.39999C122.6 6.29999 122.6 6.3 122.7 6.3L123.8 6.5C123.8 6.5 123.9 6.49999 123.9 6.59999L124.9 10.2C124.9 10.3 125 10.4 125.1 10.4L126.5 10.6C126.6 10.6 126.6 10.6 126.6 10.6L126.7 10.5V10.4L125.6 6.7C125.6 6.7 125.6 6.69999 125.6 6.59999C125.6 6.59999 125.6 6.59999 125.7 6.59999C126.2 6.49999 126.7 6.29999 127 5.89999C127.3 5.49999 127.6 5.1 127.7 4.5C127.8 4 127.7 3.49999 127.6 3.09999C127.4 2.69999 127.2 2.3 126.8 2C126.4 1.7 126 1.5 125.4 1.5L121.9 1C121.8 1 121.7 0.999997 121.7 1.2L120.4 9.5C120.4 9.6 120.4 9.7 120.6 9.7ZM123.2 2.8C123.3 2.7 123.3 2.7 123.2 2.8L124.9 3C125.3 3.1 125.5 3.19999 125.7 3.39999C125.9 3.59999 126 3.9 125.9 4.3C125.8 4.6 125.7 4.89999 125.4 5.09999C125.1 5.29999 124.8 5.3 124.5 5.3L122.9 5C122.8 5 122.8 4.99999 122.8 4.89999L123.2 2.8Z" fill="#1C355D"/>
<path d="M132.4 11.6999C132.8 12.0999 133.3 12.2999 134 12.4999C134.6 12.6999 135.2 12.6999 135.8 12.5999C136.3 12.4999 136.8 12.1999 137.2 11.8999C137.6 11.4999 137.9 11.0999 138 10.4999L139.5 4.99991C139.5 4.89991 139.5 4.79991 139.3 4.69991L138 4.29991C137.9 4.29991 137.8 4.29991 137.7 4.49991L136.2 9.99991C136.1 10.3999 135.9 10.6999 135.5 10.8999C135.2 11.0999 134.8 11.0999 134.3 10.9999C133.9 10.8999 133.6 10.6999 133.4 10.2999C133.2 9.99991 133.2 9.5999 133.3 9.0999L134.8 3.5999C134.8 3.4999 134.8 3.39991 134.6 3.29991L133.3 2.8999C133.2 2.8999 133.1 2.8999 133 3.0999L131.5 8.5999C131.3 9.1999 131.3 9.69991 131.5 10.1999C131.7 10.7999 132 11.2999 132.4 11.6999Z" fill="#1C355D"/>
<path d="M142.8 15.2C142.9 15.3 143 15.2 143.1 15.1L145.1 10C145.1 10 145.1 10 145.2 10C145.3 10 145.2 10 145.2 10.1L145.6 12.5C145.6 12.6 145.7 12.7 145.8 12.7L146.4 12.9C146.5 12.9 146.6 12.9 146.7 12.9L148.7 11.4H148.8C148.8 11.4 148.8 11.4 148.8 11.5L146.8 16.6C146.7 16.7 146.8 16.8 146.9 16.9L148.2 17.4C148.3 17.5 148.4 17.4 148.5 17.3L151.6 9.50002C151.7 9.40002 151.6 9.30002 151.5 9.20002L150.2 8.70002C150.1 8.70002 150 8.70002 149.9 8.70002L147.1 10.8C147.1 10.8 147.1 10.8 147 10.8C147 10.8 147 10.8 147 10.7L146.4 7.30003C146.4 7.20003 146.3 7.10001 146.2 7.10001L144.9 6.60001C144.8 6.50001 144.7 6.60002 144.6 6.70002L141.5 14.5C141.4 14.6 141.5 14.7 141.6 14.8L142.8 15.2Z" fill="#1C355D"/>
<path d="M164.8 26.6998C165.5 27.1998 166.3 27.4998 167 27.3998C167.7 27.3998 168.3 26.9998 168.7 26.3998C169.3 25.5998 169.3 24.7998 168.9 23.9998V23.8998C168.9 23.8998 168.9 23.8998 169 23.8998C169.8 23.9998 170.4 23.6998 170.9 22.9998C171.8 21.6998 171.5 20.3998 169.8 19.2998L167.2 17.4998C167.1 17.3998 167 17.3998 166.9 17.5998L162.1 24.4998C162 24.5998 162 24.6998 162.2 24.7998L164.8 26.6998ZM167.6 19.7998H167.7L168.9 20.5998C169.2 20.7998 169.4 21.0998 169.5 21.3998C169.6 21.6998 169.5 21.9998 169.3 22.1998C169.1 22.4998 168.9 22.5998 168.6 22.5998C168.3 22.5998 168 22.4998 167.7 22.2998L166.5 21.4998V21.3998L167.6 19.7998ZM165.6 22.6998H165.7L167 23.5998C167.3 23.7998 167.5 24.0998 167.6 24.3998C167.7 24.6998 167.6 24.9998 167.4 25.2998C167.2 25.5998 167 25.6998 166.7 25.7998C166.4 25.7998 166.1 25.6998 165.8 25.4998L164.5 24.5998V24.4998L165.6 22.6998Z" fill="#1C355D"/>
<path d="M170.9 31.2L175.2 34.9C175.3 35 175.4 35 175.5 34.9L176.2 34.1C176.3 34 176.3 33.9 176.2 33.8L173.1 31.1V31L174.4 29.5H174.5L176.5 31.2C176.6 31.3 176.7 31.3 176.8 31.2L177.5 30.4C177.6 30.3 177.6 30.2 177.5 30.1L175.5 28.4V28.3L176.8 26.8H176.9L180 29.5C180.1 29.6 180.2 29.6 180.3 29.5L181 28.7C181.1 28.6 181.1 28.5 181 28.4L176.7 24.7C176.6 24.6 176.5 24.6 176.4 24.7L170.9 31.1C170.8 31 170.8 31.1 170.9 31.2Z" fill="#1C355D"/>
<path d="M178.6 38.2L179.5 39.2C179.6 39.3 179.7 39.3 179.8 39.2L182.3 36.9H182.4L183.2 37.7V37.8L181.8 41.3C181.8 41.4 181.8 41.5 181.9 41.6L182.9 42.6L183 42.7H183.1L183.2 42.6L184.6 39C184.6 39 184.6 39 184.7 39C185.2 39.3 185.7 39.3 186.2 39.3C186.7 39.2 187.2 39 187.6 38.6C188 38.2 188.2 37.8 188.4 37.4C188.5 37 188.6 36.5 188.4 36.1C188.3 35.6 188 35.2 187.7 34.8L185.3 32.2C185.2 32.1 185.1 32.1 185 32.2L178.9 38C178.5 37.9 178.5 38 178.6 38.2ZM183.4 35.8L184.9 34.3H185L186.1 35.5C186.3 35.8 186.5 36 186.5 36.4C186.5 36.7 186.4 37 186.1 37.2C185.9 37.4 185.6 37.5 185.3 37.5C185 37.5 184.7 37.3 184.5 37.1L183.4 35.9C183.3 35.9 183.3 35.8 183.4 35.8Z" fill="#1C355D"/>
<path d="M186.8 45.3001C186.6 45.8001 186.5 46.3001 186.6 46.9001C186.7 47.5001 186.9 48.0001 187.3 48.5001C187.7 49.0001 188.1 49.4001 188.6 49.6001C189.1 49.8001 189.6 49.9001 190.2 49.9001C190.7 49.8001 191.3 49.6001 191.8 49.2001L193.1 48.2001C193.2 48.1001 193.2 48.0001 193.1 47.9001L191.3 45.5001C191.2 45.4001 191.1 45.4001 191 45.5001L190.2 46.1001C190.1 46.2001 190.1 46.3001 190.2 46.4001L191 47.5001V47.6001L190.6 47.9001C190.3 48.1001 189.9 48.2001 189.6 48.2001C189.3 48.1001 189 47.9001 188.7 47.6001C188.4 47.2001 188.3 46.9001 188.4 46.4001C188.4 46.0001 188.7 45.7001 189 45.4001L191.3 43.6001C191.7 43.3001 192 43.2001 192.4 43.3001C192.8 43.3001 193.1 43.6001 193.4 43.9001C193.7 44.3001 193.8 44.6001 193.7 45.0001C193.7 45.4001 193.5 45.7001 193.2 45.9001L193.1 46.0001C193.1 46.0001 193.1 46.0001 193.1 46.1001C193.1 46.1001 193.1 46.2001 193.2 46.2001L194 47.3001C194.1 47.4001 194.2 47.4001 194.3 47.3001C194.7 47.0001 195 46.6001 195.2 46.1001C195.4 45.6001 195.4 45.1001 195.3 44.6001C195.2 44.1001 195 43.5001 194.6 43.0001C194.2 42.5001 193.8 42.1001 193.3 41.9001C192.8 41.7001 192.3 41.6001 191.7 41.6001C191.2 41.7001 190.6 41.9001 190.2 42.3001L187.9 44.0001C187.4 44.4001 187 44.8001 186.8 45.3001Z" fill="#1C355D"/>
<path d="M193.1 53.9999C192.8 54.4999 192.7 54.9999 192.7 55.5999C192.7 56.1999 192.9 56.6999 193.2 57.2999C193.5 57.8999 194 58.2999 194.4 58.5999C194.9 58.8999 195.4 58.9999 196 58.9999C196.6 58.9999 197.1 58.7999 197.7 58.4999L200 57.0999C200.5 56.7999 200.9 56.3999 201.2 55.8999C201.5 55.3999 201.6 54.8999 201.6 54.2999C201.6 53.6999 201.4 53.1999 201 52.5999C200.7 51.9999 200.2 51.5999 199.8 51.2999C199.3 50.9999 198.8 50.8999 198.2 50.8999C197.6 50.8999 197.1 51.0999 196.6 51.3999L194.3 52.7999C193.8 53.0999 193.4 53.5999 193.1 53.9999ZM194.4 55.2999C194.5 54.8999 194.8 54.5999 195.2 54.2999L197.6 52.8999C198 52.5999 198.4 52.5999 198.8 52.6999C199.2 52.7999 199.5 52.9999 199.8 53.3999C200 53.7999 200.1 54.1999 200 54.5999C199.9 54.9999 199.6 55.2999 199.2 55.5999L196.8 56.9999C196.4 57.2999 196 57.2999 195.6 57.1999C195.2 57.0999 194.9 56.8999 194.6 56.4999C194.4 56.0999 194.3 55.6999 194.4 55.2999Z" fill="#1C355D"/>
<path d="M197.3 64.1002L197.9 65.3002C198 65.4002 198.1 65.5002 198.2 65.4002L203.2 63.1002H203.3C203.3 63.1002 203.3 63.1002 203.3 63.2002L201.9 65.2002C201.8 65.3002 201.8 65.4002 201.9 65.5002L202.2 66.1002C202.2 66.2002 202.3 66.3002 202.4 66.3002L204.8 66.6002H204.9C204.9 66.6002 204.9 66.6002 204.9 66.7002L199.9 69.0002C199.8 69.1002 199.7 69.2002 199.8 69.3002L200.4 70.5002C200.5 70.6002 200.6 70.7002 200.7 70.6002L208.4 67.1002C208.5 67.0002 208.6 66.9002 208.5 66.8002L207.9 65.6002C207.9 65.5002 207.8 65.4002 207.7 65.4002L204.2 64.9002C204.2 64.9002 204.2 64.9002 204.1 64.9002C204.1 64.9002 204.1 64.9002 204.1 64.8002L206 61.9002C206.1 61.8002 206.1 61.7002 206 61.6002L205.4 60.4002C205.3 60.3002 205.2 60.2002 205.1 60.3002L197.4 63.8002C197.3 63.9002 197.2 64.0002 197.3 64.1002Z" fill="#1C355D"/>
<path d="M201.9 74.9999L203.7 80.3999C203.7 80.4999 203.8 80.5999 204 80.4999L205 80.1999C205.1 80.1999 205.2 80.0999 205.1 79.8999L203.8 75.9999V75.8999L205.7 75.2999H205.8L206.6 77.7999C206.6 77.8999 206.7 77.9999 206.9 77.8999L207.9 77.5999C208 77.5999 208.1 77.4999 208 77.2999L207.2 74.7999V74.6999L209 74.0999H209.1L210.4 77.9999C210.4 78.0999 210.5 78.1999 210.7 78.0999L211.7 77.7999C211.8 77.7999 211.9 77.6999 211.8 77.4999L210 72.0999C210 71.9999 209.9 71.8999 209.7 71.9999L201.7 74.5999C201.9 74.7999 201.9 74.8999 201.9 74.9999Z" fill="#1C355D"/>
<path d="M204.8 84.8999L205.1 86.1999C205.1 86.2999 205.2 86.3999 205.4 86.3999L210.5 85.2999H210.6C210.6 85.2999 210.6 85.2999 210.6 85.3999L206 89.5999C205.9 89.6999 205.9 89.7999 205.9 89.8999L206.2 91.1999C206.2 91.2999 206.3 91.3999 206.5 91.3999L214.7 89.6999C214.8 89.6999 214.9 89.5999 214.9 89.3999L214.6 88.0999C214.6 87.9999 214.5 87.8999 214.3 87.8999L209.2 88.9999H209.1C209.1 88.9999 209.1 88.9999 209.1 88.8999L213.6 84.6999C213.7 84.5999 213.7 84.4999 213.7 84.3999L213.4 83.0999C213.4 82.9999 213.3 82.8999 213.1 82.8999L205 84.6999C204.9 84.6999 204.8 84.7999 204.8 84.8999Z" fill="#1C355D"/>
<path d="M208.5 101.5C208.9 101.7 209.4 101.8 209.9 101.8C210.4 101.7 210.8 101.6 211.2 101.3C211.5 101 211.7 100.7 211.9 100.3C212 99.9 212.2 99.5 212.3 98.9C212.4 98.3 212.5 97.9 212.6 97.7C212.7 97.4 212.8 97.2 212.9 97.1C213 97 213.2 96.9 213.4 96.9C213.7 96.9 213.9 97 214.1 97.2C214.3 97.4 214.4 97.7 214.4 98.1C214.4 98.6 214.4 99 214.1 99.3C213.9 99.6 213.6 99.8 213.2 99.8H213.1C213 99.8 213 99.9 213 100L213.1 101.3C213.1 101.4 213.2 101.5 213.3 101.5H213.4C213.9 101.4 214.4 101.3 214.8 100.9C215.2 100.6 215.5 100.2 215.6 99.6C215.8 99.1 215.8 98.5 215.8 97.9C215.7 97.3 215.6 96.8 215.3 96.3C215.1 95.9 214.7 95.5 214.3 95.3C213.9 95.1 213.4 95 212.9 95C212.4 95 212 95.2 211.7 95.5C211.4 95.8 211.1 96.2 211 96.6C210.8 97 210.7 97.5 210.5 98.1C210.4 98.6 210.3 99 210.2 99.2C210.1 99.4 210 99.6 209.9 99.8C209.8 99.9 209.6 100 209.4 100C209.1 100 208.9 99.9 208.7 99.7C208.5 99.5 208.4 99.2 208.3 98.7C208.3 98.2 208.3 97.8 208.5 97.5C208.7 97.2 209 97 209.3 97H209.5C209.6 97 209.7 96.9 209.6 96.8L209.5 95.5C209.5 95.4 209.4 95.3 209.3 95.3H209.1C208.6 95.4 208.1 95.5 207.8 95.8C207.4 96.1 207.2 96.5 207 97C206.8 97.5 206.8 98.1 206.8 98.7C206.9 99.4 207 99.9 207.3 100.4C207.8 100.9 208.1 101.2 208.5 101.5Z" fill="#1C355D"/>
<path d="M216.4 106.3C216.4 106.2 216.3 106.1 216.2 106.1L207.8 106.2C207.7 106.2 207.6 106.3 207.6 106.4V107.8C207.6 107.9 207.7 108 207.8 108L216.2 107.9C216.3 107.9 216.4 107.8 216.4 107.7V106.3Z" fill="#1C355D"/>
<path d="M215.3 113.2C214.9 112.9 214.5 112.8 214 112.7C213.5 112.7 213 112.8 212.7 113C212.3 113.2 212 113.6 211.8 113.9C211.6 114.3 211.3 114.7 211.1 115.3C210.9 115.8 210.7 116.1 210.6 116.4C210.5 116.6 210.3 116.8 210.2 116.9C210.1 117 209.9 117.1 209.7 117.1C209.4 117.1 209.2 117 209 116.7C208.8 116.5 208.8 116.1 208.8 115.7C208.8 115.2 209 114.8 209.2 114.5C209.5 114.2 209.7 114.1 210.1 114.1H210.3C210.4 114.1 210.5 114 210.5 113.9L210.6 112.6C210.6 112.5 210.5 112.4 210.4 112.4H210.2C209.7 112.4 209.2 112.5 208.8 112.7C208.4 112.9 208.1 113.3 207.8 113.8C207.5 114.3 207.4 114.8 207.3 115.5C207.3 116.2 207.3 116.7 207.5 117.2C207.7 117.7 207.9 118.1 208.3 118.4C208.7 118.7 209.1 118.9 209.6 118.9C210.1 118.9 210.6 118.8 210.9 118.6C211.3 118.4 211.5 118.1 211.7 117.7C211.9 117.4 212.1 116.9 212.4 116.3C212.6 115.8 212.8 115.4 212.9 115.1C213 114.9 213.2 114.7 213.3 114.6C213.5 114.5 213.6 114.4 213.8 114.4C214.1 114.4 214.3 114.5 214.5 114.8C214.7 115 214.7 115.3 214.7 115.7C214.7 116.2 214.5 116.6 214.2 116.9C213.9 117.2 213.6 117.3 213.3 117.3H213.2C213.1 117.3 213.1 117.4 213.1 117.5L213 118.8C213 118.9 213.1 119 213.2 119H213.3C213.8 119 214.3 118.9 214.7 118.7C215.1 118.4 215.5 118.1 215.7 117.6C216 117.1 216.1 116.5 216.2 115.9C216.2 115.3 216.2 114.8 216 114.3C215.9 113.9 215.6 113.5 215.3 113.2Z" fill="#1C355D"/>
<path d="M209.8 129.2C209.6 129 209.3 128.9 209 128.8C208.7 128.7 208.4 128.7 208.1 128.8C207.8 128.9 207.6 129 207.4 129.3C207.2 129.5 207.1 129.8 207 130.1C206.9 130.4 206.9 130.7 207 130.9C207.1 131.2 207.2 131.4 207.5 131.6C207.7 131.8 208 131.9 208.3 132C208.6 132.1 208.9 132 209.1 132C209.4 131.9 209.6 131.8 209.8 131.5C210 131.3 210.1 131 210.2 130.7C210.3 130.4 210.3 130.1 210.2 129.9C210.2 129.6 210 129.4 209.8 129.2Z" fill="#1C355D"/>
<path d="M286.2 70.5003C284.4 68.9003 283.5 66.4003 283.5 63.1003V48.6003C283.5 48.3003 283.6 48.1003 283.7 48.0003C283.9 47.8003 284.1 47.8003 284.3 47.8003H287.6C287.9 47.8003 288.1 47.9003 288.2 48.0003C288.4 48.2003 288.4 48.4003 288.4 48.6003V63.1003C288.4 65.0003 288.8 66.4003 289.7 67.3003C290.6 68.2003 291.9 68.7003 293.5 68.7003C295.1 68.7003 296.4 68.2003 297.3 67.3003C298.2 66.4003 298.6 64.9003 298.6 63.1003V48.6003C298.6 48.3003 298.7 48.1003 298.8 48.0003C299 47.8003 299.2 47.8003 299.4 47.8003H302.7C303 47.8003 303.2 47.9003 303.3 48.0003C303.5 48.2003 303.5 48.4003 303.5 48.6003V63.1003C303.5 66.4003 302.6 68.9003 300.8 70.5003C299 72.1003 296.5 73.0003 293.3 73.0003C290.5 73.0003 288 72.1003 286.2 70.5003Z" fill="#1C355D"/>
<path d="M310.8 72.4003C310.6 72.2003 310.6 72.0003 310.6 71.8003V48.6003C310.6 48.3003 310.7 48.1003 310.8 48.0003C311 47.8003 311.2 47.8003 311.4 47.8003H314.2C314.7 47.8003 315 48.0003 315.2 48.4003L325.4 64.2003V48.7003C325.4 48.4003 325.5 48.2003 325.6 48.1003C325.8 47.9003 326 47.9003 326.2 47.9003H329.3C329.6 47.9003 329.8 48.0003 329.9 48.1003C330.1 48.3003 330.1 48.5003 330.1 48.7003V71.7003C330.1 72.0003 330 72.2003 329.9 72.3003C329.7 72.5003 329.5 72.5003 329.3 72.5003H326.5C326 72.5003 325.7 72.3003 325.4 71.9003L315.3 56.5003V71.7003C315.3 71.9003 315.2 72.1003 315.1 72.3003C314.9 72.5003 314.7 72.5003 314.5 72.5003H311.4C311.2 72.6003 311 72.5003 310.8 72.4003Z" fill="#1C355D"/>
<path d="M337.3 72.4003C337.1 72.2003 337.1 72.0003 337.1 71.8003V48.6003C337.1 48.3003 337.2 48.1003 337.3 48.0003C337.5 47.8003 337.7 47.8003 337.9 47.8003H341.3C341.6 47.8003 341.8 47.9003 341.9 48.0003C342.1 48.2003 342.1 48.4003 342.1 48.6003V71.8003C342.1 72.0003 342 72.2003 341.9 72.4003C341.7 72.6003 341.5 72.6003 341.3 72.6003H337.9C337.7 72.6003 337.5 72.5003 337.3 72.4003Z" fill="#1C355D"/>
<path d="M355.4 71.6003L347.8 48.8003C347.8 48.7003 347.8 48.6003 347.8 48.5003C347.8 48.3003 347.9 48.1003 348 48.0003C348.1 47.9003 348.3 47.8003 348.5 47.8003H351.7C352 47.8003 352.3 47.9003 352.4 48.0003C352.6 48.2003 352.7 48.3003 352.8 48.5003L358.7 66.7003L364.7 48.5003C364.7 48.3003 364.9 48.1003 365.1 48.0003C365.3 47.8003 365.5 47.8003 365.8 47.8003H369C369.2 47.8003 369.4 47.9003 369.5 48.0003C369.7 48.1003 369.7 48.3003 369.7 48.5003L369.6 48.8003L362 71.6003C361.8 72.3003 361.3 72.6003 360.6 72.6003H356.7C356.1 72.6003 355.7 72.3003 355.4 71.6003Z" fill="#1C355D"/>
<path d="M375.2 72.4003C375 72.2003 375 72.0003 375 71.8003V48.6003C375 48.3003 375.1 48.1003 375.2 48.0003C375.4 47.8003 375.6 47.8003 375.8 47.8003H391.5C391.8 47.8003 392 47.9003 392.1 48.0003C392.3 48.2003 392.3 48.4003 392.3 48.6003V51.0003C392.3 51.3003 392.2 51.5003 392.1 51.6003C391.9 51.8003 391.7 51.8003 391.5 51.8003H379.8V58.0003H390.7C391 58.0003 391.2 58.1003 391.3 58.2003C391.5 58.4003 391.5 58.6003 391.5 58.8003V61.0003C391.5 61.3003 391.4 61.5003 391.3 61.6003C391.1 61.8003 390.9 61.8003 390.7 61.8003H379.8V68.2003H391.8C392.1 68.2003 392.3 68.3003 392.4 68.4003C392.6 68.6003 392.6 68.8003 392.6 69.0003V71.4003C392.6 71.7003 392.5 71.9003 392.4 72.0003C392.2 72.2003 392 72.2003 391.8 72.2003H375.8C375.6 72.6003 375.4 72.5003 375.2 72.4003Z" fill="#1C355D"/>
<path d="M398.6 72.4003C398.4 72.2003 398.4 72.0003 398.4 71.8003V48.6003C398.4 48.3003 398.5 48.1003 398.6 48.0003C398.8 47.8003 399 47.8003 399.2 47.8003H408.4C411.3 47.8003 413.6 48.5003 415.2 49.8003C416.8 51.2003 417.7 53.1003 417.7 55.6003C417.7 57.3003 417.3 58.8003 416.5 60.0003C415.7 61.2003 414.5 62.0003 413 62.5003L418.2 71.6003C418.3 71.7003 418.3 71.9003 418.3 72.0003C418.3 72.2003 418.2 72.4003 418.1 72.5003C417.9 72.6003 417.8 72.7003 417.6 72.7003H414.3C413.9 72.7003 413.6 72.6003 413.4 72.4003C413.2 72.2003 413 72.0003 412.8 71.7003L408.2 63.3003H403.3V71.8003C403.3 72.0003 403.2 72.2003 403.1 72.4003C402.9 72.6003 402.7 72.6003 402.5 72.6003H399.2C398.9 72.6003 398.7 72.5003 398.6 72.4003ZM408.3 59.2003C409.7 59.2003 410.8 58.9003 411.5 58.3003C412.2 57.7003 412.6 56.8003 412.6 55.5003C412.6 54.3003 412.2 53.4003 411.5 52.7003C410.8 52.0003 409.7 51.7003 408.3 51.7003H403.4V59.2003H408.3Z" fill="#1C355D"/>
<path d="M426.9 72C425.4 71.4 424.2 70.5 423.4 69.5C422.6 68.5 422.2 67.3 422.2 66.1C422.2 65.9 422.3 65.7 422.4 65.6C422.5 65.4 422.7 65.4 422.9 65.4H426.1C426.4 65.4 426.6 65.5 426.7 65.6C426.9 65.7 427 65.9 427.2 66.1C427.4 66.9 428 67.6 428.8 68.1C429.6 68.6 430.8 68.9 432.3 68.9C434 68.9 435.2 68.6 436.1 68.1C436.9 67.5 437.4 66.8 437.4 65.8C437.4 65.2 437.2 64.6 436.8 64.2C436.4 63.8 435.7 63.4 434.9 63.1C434 62.8 432.7 62.4 431 61.9C428.2 61.2 426.1 60.4 424.8 59.3C423.5 58.2 422.8 56.6 422.8 54.6C422.8 53.2 423.2 52 423.9 50.9C424.7 49.8 425.7 49 427.2 48.4C428.6 47.8 430.3 47.5 432.1 47.5C434.1 47.5 435.8 47.8 437.2 48.5C438.6 49.2 439.7 50 440.5 51.1C441.2 52.1 441.6 53.2 441.7 54.2C441.7 54.4 441.6 54.6 441.5 54.7C441.4 54.9 441.2 54.9 441 54.9H437.6C437.1 54.9 436.7 54.7 436.5 54.3C436.4 53.5 435.9 52.9 435.1 52.4C434.3 51.9 433.3 51.6 432.1 51.6C430.8 51.6 429.8 51.8 429 52.3C428.3 52.8 427.9 53.5 427.9 54.5C427.9 55.1 428.1 55.7 428.5 56.1C428.9 56.5 429.5 56.9 430.3 57.2C431.1 57.5 432.3 57.9 433.8 58.3C435.9 58.8 437.6 59.3 438.8 59.9C440 60.5 441 61.2 441.6 62.1C442.2 63 442.5 64.2 442.5 65.6C442.5 67.1 442.1 68.5 441.2 69.6C440.4 70.7 439.2 71.6 437.6 72.2C436.1 72.8 434.3 73.1 432.3 73.1C430.3 73 428.4 72.6 426.9 72Z" fill="#1C355D"/>
<path d="M448.2 72.4003C448 72.2003 448 72.0003 448 71.8003V48.6003C448 48.3003 448.1 48.1003 448.2 48.0003C448.4 47.8003 448.6 47.8003 448.8 47.8003H452.2C452.5 47.8003 452.7 47.9003 452.8 48.0003C453 48.2003 453 48.4003 453 48.6003V71.8003C453 72.0003 452.9 72.2003 452.8 72.4003C452.6 72.6003 452.4 72.6003 452.2 72.6003H448.8C448.6 72.6003 448.4 72.5003 448.2 72.4003Z" fill="#1C355D"/>
<path d="M466 72.4004C465.8 72.2004 465.8 72.0004 465.8 71.8004V52.2004H459.2C459 52.2004 458.8 52.1004 458.6 52.0004C458.4 51.8004 458.4 51.6004 458.4 51.4004V48.7004C458.4 48.4004 458.5 48.2004 458.6 48.1004C458.8 47.9004 459 47.9004 459.2 47.9004H477.4C477.7 47.9004 477.9 48.0004 478 48.1004C478.2 48.3004 478.2 48.5004 478.2 48.7004V51.4004C478.2 51.7004 478.1 51.9004 478 52.0004C477.8 52.2004 477.6 52.2004 477.4 52.2004H470.9V71.8004C470.9 72.0004 470.8 72.2004 470.7 72.4004C470.5 72.6004 470.3 72.6004 470.1 72.6004H466.8C466.4 72.6004 466.2 72.5004 466 72.4004Z" fill="#1C355D"/>
<path d="M478.6 72.4002C478.5 72.3002 478.4 72.1002 478.4 71.9002L478.5 71.6002L487 48.6002C487.2 48.0002 487.7 47.7002 488.3 47.7002H492.2C492.8 47.7002 493.2 48.0002 493.5 48.6002L502 71.6002L502.1 71.9002C502.1 72.1002 502 72.3002 501.9 72.4002C501.8 72.5002 501.6 72.6002 501.4 72.6002H498.2C497.7 72.6002 497.4 72.4002 497.2 71.9002L495.6 67.6002H485.1L483.5 71.9002C483.3 72.4002 483 72.6002 482.5 72.6002H479.3C478.9 72.6002 478.7 72.5002 478.6 72.4002ZM488.8 45.8002C488.6 45.7002 488.4 45.6002 488.2 45.4002L483.8 41.8002C483.7 41.7002 483.6 41.5002 483.6 41.4002C483.6 41.2002 483.7 41.0002 483.8 40.9002C483.9 40.8002 484.1 40.7002 484.3 40.7002H488.2C488.5 40.7002 488.7 40.7002 488.9 40.8002C489.1 40.9002 489.3 41.1002 489.5 41.3002L492.4 44.8002C492.5 44.9002 492.6 45.1002 492.6 45.3002C492.6 45.7002 492.4 45.9002 492 45.9002H489.5C489.2 45.9002 489 45.9002 488.8 45.8002ZM486.2 63.5002H494.2L490.2 52.5002L486.2 63.5002Z" fill="#1C355D"/>
<path d="M284 111.2C283.8 111 283.8 110.8 283.8 110.6V87.4001C283.8 87.1001 283.9 86.9001 284 86.8001C284.2 86.6001 284.4 86.6001 284.6 86.6001H293.3C300.3 86.6001 303.9 89.8001 304 96.3001C304 97.7001 304.1 98.6001 304.1 99.1001C304.1 99.6001 304.1 100.5 304 101.8C303.9 105.1 303 107.6 301.3 109.1C299.6 110.7 297 111.5 293.5 111.5H284.6C284.4 111.5 284.2 111.4 284 111.2ZM293.3 107.3C295.3 107.3 296.7 106.9 297.6 106C298.5 105.1 298.9 103.7 299 101.6C299 100.2 299.1 99.3001 299.1 98.9001C299.1 98.5001 299.1 97.6001 299 96.3001C299 94.4001 298.5 92.9001 297.5 92.0001C296.6 91.1001 295.1 90.6001 293.1 90.6001H288.8V107.3H293.3Z" fill="#1C355D"/>
<path d="M309.2 111.2C309 111 309 110.8 309 110.6V87.4001C309 87.1001 309.1 86.9001 309.2 86.8001C309.3 86.7001 309.6 86.6001 309.8 86.6001H325.5C325.8 86.6001 326 86.7001 326.1 86.8001C326.3 87.0001 326.3 87.2001 326.3 87.4001V89.8001C326.3 90.1001 326.2 90.3001 326.1 90.4001C325.9 90.6001 325.7 90.6001 325.5 90.6001H313.8V96.8001H324.7C325 96.8001 325.2 96.9001 325.3 97.0001C325.5 97.2001 325.5 97.4001 325.5 97.6001V99.8001C325.5 100.1 325.4 100.3 325.3 100.4C325.2 100.5 324.9 100.6 324.7 100.6H313.8V107H325.8C326.1 107 326.3 107.1 326.4 107.2C326.6 107.4 326.6 107.6 326.6 107.8V110.2C326.6 110.5 326.5 110.7 326.4 110.8C326.2 111 326 111 325.8 111H309.8C309.6 111.5 309.4 111.4 309.2 111.2Z" fill="#1C355D"/>
<path d="M333.7 109.3C331.9 107.6 330.9 105.3 330.8 102.3C330.8 101.6 330.8 100.5 330.8 99.0003C330.8 97.5003 330.8 96.4003 330.8 95.7003C330.9 92.8003 331.9 90.5003 333.7 88.8003C335.5 87.1003 338.1 86.3003 341.3 86.3003C343.5 86.3003 345.4 86.7003 346.9 87.4003C348.5 88.1003 349.7 89.1003 350.5 90.2003C351.3 91.3003 351.7 92.4003 351.8 93.5003C351.8 93.7003 351.7 93.9003 351.6 94.0003C351.5 94.1003 351.3 94.2003 351 94.2003H347.3C347.1 94.2003 346.9 94.2003 346.8 94.1003C346.7 94.0003 346.6 93.9003 346.5 93.6003C346.2 92.7003 345.6 92.0003 344.8 91.4003C344 90.8003 342.8 90.5003 341.4 90.5003C339.7 90.5003 338.4 90.9003 337.5 91.8003C336.6 92.7003 336.1 94.1003 336 95.9003C336 96.6003 336 97.6003 336 99.0003C336 100.4 336 101.4 336 102.1C336 104 336.5 105.4 337.5 106.4C338.4 107.3 339.8 107.8 341.4 107.8C343.1 107.8 344.4 107.3 345.5 106.4C346.5 105.5 347 104.1 347 102.3V101.2H342.7C342.5 101.2 342.3 101.1 342.1 101C341.9 100.8 341.9 100.6 341.9 100.4V98.4003C341.9 98.2003 342 98.0003 342.1 97.8003C342.3 97.6003 342.5 97.6003 342.7 97.6003H351.2C351.5 97.6003 351.7 97.7003 351.8 97.8003C352 98.0003 352 98.2003 352 98.4003V102.2C352 104.2 351.6 105.9 350.7 107.3C349.8 108.8 348.6 109.9 347 110.7C345.4 111.5 343.5 111.9 341.3 111.9C338 111.8 335.5 111 333.7 109.3Z" fill="#1C355D"/>
<path d="M357.6 111.2C357.4 111 357.4 110.8 357.4 110.6V87.4001C357.4 87.1001 357.5 86.9001 357.6 86.8001C357.8 86.6001 358 86.6001 358.2 86.6001H361.5C361.8 86.6001 362 86.7001 362.1 86.8001C362.3 87.0001 362.3 87.2001 362.3 87.4001V107.2H373.6C373.9 107.2 374.1 107.3 374.2 107.4C374.4 107.6 374.4 107.8 374.4 108V110.6C374.4 110.8 374.3 111 374.2 111.2C374 111.4 373.8 111.4 373.6 111.4H358.1C357.9 111.5 357.7 111.4 357.6 111.2Z" fill="#1C355D"/>
<path d="M379 111.2C378.8 111 378.8 110.8 378.8 110.6V87.4001C378.8 87.1001 378.9 86.9001 379 86.8001C379.2 86.6001 379.4 86.6001 379.6 86.6001H383C383.3 86.6001 383.5 86.7001 383.6 86.8001C383.8 87.0001 383.8 87.2001 383.8 87.4001V110.6C383.8 110.8 383.7 111 383.6 111.2C383.4 111.4 383.2 111.4 383 111.4H379.6C379.3 111.5 379.1 111.4 379 111.2Z" fill="#1C355D"/>
<path d="M405.9 110.9C404.4 110.3 403.2 109.4 402.4 108.4C401.6 107.4 401.2 106.2 401.2 105C401.2 104.8 401.3 104.6 401.4 104.5C401.5 104.3 401.7 104.3 401.9 104.3H405.1C405.4 104.3 405.6 104.4 405.7 104.5C405.9 104.6 406 104.8 406.2 105C406.4 105.8 407 106.5 407.8 107C408.6 107.5 409.8 107.8 411.3 107.8C413 107.8 414.2 107.5 415.1 107C415.9 106.4 416.4 105.7 416.4 104.7C416.4 104.1 416.2 103.5 415.8 103.1C415.4 102.7 414.7 102.3 413.9 102C413 101.7 411.7 101.3 410 100.8C407.2 100.1 405.1 99.3004 403.8 98.2004C402.5 97.1004 401.8 95.5004 401.8 93.5004C401.8 92.1004 402.2 90.9004 402.9 89.8004C403.7 88.7004 404.7 87.9004 406.2 87.3004C407.6 86.7004 409.3 86.4004 411.1 86.4004C413.1 86.4004 414.8 86.7004 416.2 87.4004C417.6 88.1004 418.7 88.9004 419.5 90.0004C420.2 91.0004 420.6 92.1004 420.7 93.1004C420.7 93.3004 420.6 93.5004 420.5 93.6004C420.4 93.8004 420.2 93.8004 420 93.8004H416.6C416.1 93.8004 415.7 93.6004 415.5 93.2004C415.4 92.4004 414.9 91.8004 414.1 91.3004C413.3 90.8004 412.3 90.5004 411.1 90.5004C409.8 90.5004 408.8 90.7004 408 91.2004C407.3 91.7004 406.9 92.4004 406.9 93.4004C406.9 94.0004 407.1 94.6004 407.5 95.0004C407.9 95.4004 408.5 95.8004 409.3 96.1004C410.1 96.4004 411.3 96.8004 412.8 97.2004C414.9 97.7004 416.6 98.2004 417.8 98.8004C419 99.4004 420 100.1 420.6 101C421.2 101.9 421.5 103.1 421.5 104.5C421.5 106 421.1 107.4 420.2 108.5C419.4 109.6 418.2 110.5 416.6 111.1C415.1 111.7 413.3 112 411.3 112C409.3 111.8 407.5 111.5 405.9 110.9Z" fill="#1C355D"/>
<path d="M430.7 111.2C430.5 111 430.5 110.8 430.5 110.6V91.0002H423.9C423.7 91.0002 423.5 90.9002 423.3 90.8002C423.1 90.6002 423.1 90.4002 423.1 90.2002V87.5002C423.1 87.2002 423.2 87.0002 423.3 86.9002C423.5 86.7002 423.7 86.7002 423.9 86.7002H442.1C442.4 86.7002 442.6 86.8002 442.7 86.9002C442.8 87.0002 442.9 87.3002 442.9 87.5002V90.2002C442.9 90.5002 442.8 90.7002 442.7 90.8002C442.5 91.0002 442.3 91.0002 442.1 91.0002H435.6V110.6C435.6 110.8 435.5 111 435.4 111.2C435.2 111.4 435 111.4 434.8 111.4H431.5C431.1 111.5 430.9 111.4 430.7 111.2Z" fill="#1C355D"/>
<path d="M449.3 109.4C447.5 107.8 446.6 105.3 446.6 102V87.5002C446.6 87.2002 446.7 87.0002 446.8 86.9002C446.9 86.8002 447.2 86.7002 447.4 86.7002H450.7C451 86.7002 451.2 86.8002 451.3 86.9002C451.4 87.0002 451.5 87.3002 451.5 87.5002V102C451.5 103.9 451.9 105.3 452.8 106.2C453.7 107.1 455 107.6 456.6 107.6C458.2 107.6 459.5 107.1 460.4 106.2C461.3 105.3 461.7 103.8 461.7 102V87.5002C461.7 87.2002 461.8 87.0002 461.9 86.9002C462 86.8002 462.3 86.7002 462.5 86.7002H465.8C466.1 86.7002 466.3 86.8002 466.4 86.9002C466.6 87.1002 466.6 87.3002 466.6 87.5002V102C466.6 105.3 465.7 107.8 463.9 109.4C462.1 111 459.6 111.9 456.4 111.9C453.5 111.8 451 111 449.3 109.4Z" fill="#1C355D"/>
<path d="M471.9 111.2C471.7 111 471.7 110.8 471.7 110.6V87.4001C471.7 87.1001 471.8 86.9001 471.9 86.8001C472.1 86.6001 472.3 86.6001 472.5 86.6001H481.2C488.2 86.6001 491.8 89.8001 491.9 96.3001C491.9 97.7001 492 98.6001 492 99.1001C492 99.6001 492 100.5 491.9 101.8C491.8 105.1 490.9 107.6 489.2 109.1C487.5 110.7 484.9 111.5 481.4 111.5H472.5C472.3 111.5 472.1 111.4 471.9 111.2ZM481.2 107.3C483.2 107.3 484.6 106.9 485.5 106C486.4 105.1 486.8 103.7 486.9 101.6C486.9 100.2 487 99.3001 487 98.9001C487 98.5001 487 97.6001 486.9 96.3001C486.9 94.4001 486.4 92.9001 485.4 92.0001C484.5 91.1001 483 90.6001 481 90.6001H476.7V107.3H481.2Z" fill="#1C355D"/>
<path d="M496.7 111.2C496.5 111 496.5 110.8 496.5 110.6V87.4001C496.5 87.1001 496.6 86.9001 496.7 86.8001C496.9 86.6001 497.1 86.6001 497.3 86.6001H500.7C501 86.6001 501.2 86.7001 501.3 86.8001C501.5 87.0001 501.5 87.2001 501.5 87.4001V110.6C501.5 110.8 501.4 111 501.3 111.2C501.1 111.4 500.9 111.4 500.7 111.4H497.3C497 111.5 496.8 111.4 496.7 111.2Z" fill="#1C355D"/>
<path d="M284 150.1C283.8 149.9 283.8 149.7 283.8 149.5V126.3C283.8 126 283.9 125.8 284 125.7C284.2 125.5 284.4 125.5 284.6 125.5H293.3C300.3 125.5 303.9 128.7 304 135.2C304 136.6 304.1 137.5 304.1 138C304.1 138.5 304.1 139.4 304 140.7C303.9 144 303 146.5 301.3 148C299.6 149.6 297 150.4 293.5 150.4H284.6C284.4 150.3 284.2 150.3 284 150.1ZM293.3 146.2C295.3 146.2 296.7 145.8 297.6 144.9C298.5 144 298.9 142.6 299 140.5C299 139.1 299.1 138.2 299.1 137.8C299.1 137.4 299.1 136.5 299 135.2C299 133.3 298.5 131.8 297.5 130.9C296.6 130 295.1 129.5 293.1 129.5H288.8V146.2H293.3Z" fill="#1C355D"/>
<path d="M309.6 150.1C309.4 149.9 309.4 149.7 309.4 149.5V126.3C309.4 126 309.5 125.8 309.6 125.7C309.8 125.5 310 125.5 310.2 125.5H313.6C313.9 125.5 314.1 125.6 314.2 125.7C314.4 125.9 314.4 126.1 314.4 126.3V149.5C314.4 149.7 314.3 149.9 314.2 150.1C314 150.3 313.8 150.3 313.6 150.3H310.2C310 150.3 309.8 150.3 309.6 150.1Z" fill="#1C355D"/>
<path d="M330.7 150.1C330.5 149.9 330.5 149.7 330.5 149.5V126.3C330.5 126 330.6 125.8 330.7 125.7C330.9 125.5 331.1 125.5 331.3 125.5H341.6C344.4 125.5 346.5 126.1 347.8 127.3C349.2 128.5 349.9 130.2 349.9 132.3C349.9 133.5 349.6 134.6 349 135.4C348.4 136.3 347.7 136.9 346.9 137.3C347.9 137.8 348.7 138.5 349.4 139.5C350.1 140.5 350.4 141.7 350.4 143C350.4 145.2 349.7 147 348.2 148.3C346.7 149.7 344.6 150.3 341.9 150.3H331.3C331.1 150.3 330.9 150.3 330.7 150.1ZM341 135.6C342.2 135.6 343.1 135.3 343.8 134.7C344.5 134.1 344.8 133.3 344.8 132.3C344.8 131.3 344.5 130.5 343.8 130C343.2 129.5 342.2 129.2 341 129.2H335.5V135.6H341ZM341.4 146.5C342.6 146.5 343.6 146.2 344.3 145.5C345 144.8 345.3 144 345.3 142.9C345.3 141.9 344.9 141 344.2 140.3C343.5 139.6 342.5 139.3 341.3 139.3H335.4V146.5H341.4V146.5Z" fill="#1C355D"/>
<path d="M355.4 150.1C355.2 149.9 355.2 149.7 355.2 149.5V126.3C355.2 126 355.3 125.8 355.4 125.7C355.6 125.5 355.8 125.5 356 125.5H371.7C372 125.5 372.2 125.6 372.3 125.7C372.5 125.9 372.5 126.1 372.5 126.3V128.7C372.5 129 372.4 129.2 372.3 129.3C372.1 129.5 371.9 129.5 371.7 129.5H360V135.7H370.9C371.2 135.7 371.4 135.8 371.5 135.9C371.7 136.1 371.7 136.3 371.7 136.5V138.7C371.7 139 371.6 139.2 371.5 139.3C371.3 139.5 371.1 139.5 370.9 139.5H360V145.9H372C372.3 145.9 372.5 146 372.6 146.1C372.8 146.3 372.8 146.5 372.8 146.7V149.1C372.8 149.4 372.7 149.6 372.6 149.7C372.4 149.9 372.2 149.9 372 149.9H356C355.7 150.3 355.5 150.3 355.4 150.1Z" fill="#1C355D"/>
<path d="M378.1 150.1C377.9 149.9 377.9 149.7 377.9 149.5V126.3C377.9 126 378 125.8 378.1 125.7C378.3 125.5 378.5 125.5 378.7 125.5H387.9C390.8 125.5 393.1 126.2 394.7 127.5C396.3 128.9 397.2 130.8 397.2 133.3C397.2 135 396.8 136.5 396 137.7C395.2 138.9 394 139.7 392.5 140.2L397.7 149.3C397.8 149.4 397.8 149.6 397.8 149.7C397.8 149.9 397.7 150.1 397.6 150.2C397.4 150.3 397.3 150.4 397.1 150.4H393.8C393.4 150.4 393.1 150.3 392.9 150.1C392.7 149.9 392.5 149.7 392.3 149.4L387.7 141H382.8V149.5C382.8 149.7 382.7 149.9 382.6 150.1C382.4 150.3 382.2 150.3 382 150.3H378.7C378.4 150.3 378.2 150.3 378.1 150.1ZM387.8 136.9C389.2 136.9 390.3 136.6 391 136C391.7 135.4 392.1 134.5 392.1 133.2C392.1 132 391.7 131.1 391 130.4C390.3 129.7 389.2 129.4 387.8 129.4H382.9V136.9H387.8Z" fill="#1C355D"/>
<path d="M404.5 148.2C402.7 146.5 401.7 144.2 401.6 141.2C401.6 140.5 401.6 139.4 401.6 137.9C401.6 136.4 401.6 135.3 401.6 134.6C401.7 131.7 402.7 129.4 404.5 127.7C406.3 126 408.9 125.2 412.1 125.2C414.3 125.2 416.2 125.6 417.7 126.3C419.3 127 420.5 128 421.3 129.1C422.1 130.2 422.5 131.3 422.6 132.4C422.6 132.6 422.5 132.8 422.4 132.9C422.3 133 422.1 133.1 421.8 133.1H418.1C417.9 133.1 417.7 133.1 417.6 133C417.5 132.9 417.4 132.8 417.3 132.5C417 131.6 416.4 130.9 415.6 130.3C414.8 129.7 413.6 129.4 412.2 129.4C410.5 129.4 409.2 129.8 408.3 130.7C407.4 131.6 406.9 133 406.8 134.8C406.8 135.5 406.8 136.5 406.8 137.9C406.8 139.3 406.8 140.3 406.8 141C406.8 142.9 407.3 144.3 408.3 145.3C409.2 146.2 410.6 146.7 412.2 146.7C413.9 146.7 415.2 146.2 416.3 145.3C417.3 144.4 417.8 143 417.8 141.2V140.1H413.5C413.3 140.1 413.1 140 412.9 139.9C412.7 139.7 412.7 139.5 412.7 139.3V137.3C412.7 137.1 412.8 136.9 412.9 136.7C413.1 136.5 413.3 136.5 413.5 136.5H422C422.3 136.5 422.5 136.6 422.6 136.7C422.8 136.9 422.8 137.1 422.8 137.3V141.1C422.8 143.1 422.4 144.8 421.5 146.2C420.6 147.7 419.4 148.8 417.8 149.6C416.2 150.4 414.3 150.8 412.1 150.8C408.9 150.7 406.3 149.8 404.5 148.2Z" fill="#1C355D"/>
<path d="M425.5 150.1C425.4 150 425.3 149.8 425.3 149.6L425.4 149.3L433.9 126.3C434.1 125.7 434.6 125.4 435.2 125.4H439.1C439.7 125.4 440.1 125.7 440.4 126.3L448.9 149.3L449 149.6C449 149.8 448.9 150 448.8 150.1C448.6 150.2 448.5 150.3 448.3 150.3H445.1C444.6 150.3 444.3 150.1 444.1 149.6L442.5 145.3H432L430.4 149.6C430.2 150.1 429.9 150.3 429.4 150.3H426C425.8 150.3 425.6 150.3 425.5 150.1ZM433.1 141.2H441.1L437.1 130.2L433.1 141.2Z" fill="#1C355D"/>
<path d="M453.3 150.1C453.1 149.9 453.1 149.7 453.1 149.5V126.3C453.1 126 453.2 125.8 453.3 125.7C453.5 125.5 453.7 125.5 453.9 125.5H456.8C457.3 125.5 457.6 125.7 457.9 126.2L464.8 138.9L471.7 126.2C472 125.7 472.3 125.5 472.8 125.5H475.6C475.9 125.5 476.1 125.6 476.2 125.7C476.4 125.9 476.4 126.1 476.4 126.3V149.5C476.4 149.8 476.3 150 476.2 150.1C476 150.3 475.8 150.3 475.6 150.3H472.5C472.3 150.3 472.1 150.2 471.9 150.1C471.7 149.9 471.7 149.7 471.7 149.5V134.2L466.8 143.6C466.5 144.1 466.1 144.4 465.6 144.4H464C463.5 144.4 463.1 144.1 462.8 143.6L457.9 134.2V149.5C457.9 149.7 457.8 149.9 457.7 150.1C457.5 150.3 457.3 150.3 457.1 150.3H454C453.7 150.3 453.5 150.3 453.3 150.1Z" fill="#1C355D"/>
<path d="M483.5 148.2C481.7 146.6 480.7 144.1 480.7 140.9C480.7 140.2 480.7 139.2 480.7 137.9C480.7 136.5 480.7 135.5 480.7 134.8C480.8 131.6 481.8 129.2 483.6 127.5C485.4 125.8 488 125 491.1 125C494.2 125 496.7 125.8 498.6 127.5C500.5 129.2 501.4 131.6 501.5 134.8C501.5 136.2 501.6 137.2 501.6 137.9C501.6 138.5 501.6 139.5 501.5 140.9C501.4 144.1 500.5 146.6 498.6 148.2C496.8 149.8 494.3 150.7 491 150.7C487.8 150.7 485.3 149.9 483.5 148.2ZM494.8 145.1C495.7 144.2 496.2 142.7 496.3 140.7C496.3 139.3 496.4 138.3 496.4 137.8C496.4 137.3 496.4 136.3 496.3 134.9C496.2 133 495.7 131.5 494.8 130.5C493.9 129.5 492.6 129.1 491.1 129.1C489.5 129.1 488.3 129.6 487.3 130.5C486.4 131.5 485.9 132.9 485.8 134.9C485.8 135.6 485.8 136.5 485.8 137.8C485.8 139 485.8 140 485.8 140.7C485.8 142.6 486.3 144.1 487.3 145.1C488.2 146.1 489.5 146.5 491.1 146.5C492.6 146.6 493.9 146.1 494.8 145.1Z" fill="#1C355D"/>
<path d="M250.6 47.3999H248.8V150.7H250.6V47.3999Z" fill="#1C355D"/>
</svg>
